<svg width="512" height="303" xmlns="http://www.w3.org/2000/svg">

 <g>
  <title>background</title>
  <rect fill="none" id="canvas_background" height="305" width="514" y="-1" x="-1"/>
 </g>
 <g>
  <title>Layer 1</title>
  <g id="svg_1">
   <path id="svg_2" fill="#878787" d="m85.333,134.667c-37.641,0 -68.267,30.626 -68.267,68.267s30.627,68.266 68.267,68.266s68.267,-30.626 68.267,-68.267s-30.626,-68.266 -68.267,-68.266m0,153.6c-47.052,0 -85.333,-38.281 -85.333,-85.334s38.281,-85.333 85.333,-85.333s85.333,38.281 85.333,85.333s-38.28,85.334 -85.333,85.334"/>
   <path id="svg_3" fill="#878787" d="m426.667,134.667c-37.641,0 -68.267,30.626 -68.267,68.267s30.626,68.267 68.267,68.267s68.267,-30.626 68.267,-68.267s-30.627,-68.267 -68.267,-68.267m0,153.6c-47.053,0 -85.333,-38.281 -85.333,-85.333s38.281,-85.333 85.333,-85.333s85.333,38.28 85.333,85.332s-38.281,85.334 -85.333,85.334"/>
   <path id="svg_4" fill="#878787" d="m99.954,195.975l123.383,13.705l-61.696,-109.67l-61.687,95.965zm138.983,32.555c-0.316,0 -0.631,-0.017 -0.947,-0.043l-153.6,-17.067c-2.935,-0.333 -5.487,-2.15 -6.758,-4.821c-1.271,-2.662 -1.075,-5.803 0.521,-8.286l76.715,-119.322c0.734,-1.203 1.775,-2.227 3.081,-2.961c1.374,-0.768 2.876,-1.195 4.343,-1.101l187.58,0c2.995,0 5.76,1.579 7.296,4.122l76.681,119.262c2.543,3.968 1.399,9.25 -2.56,11.793c-3.977,2.569 -9.25,1.399 -11.802,-2.56l-74.283,-115.55l-168.475,0l69.641,123.819c1.57,2.79 1.451,6.229 -0.316,8.892c-1.596,2.406 -4.276,3.823 -7.117,3.823l0,0z"/>
   <path id="svg_5" fill="#878787" d="m238.929,228.533c-1.894,0 -3.797,-0.623 -5.376,-1.911c-3.661,-2.97 -4.215,-8.346 -1.237,-12.006l110.933,-136.533c2.97,-3.652 8.354,-4.198 11.998,-1.237c3.661,2.97 4.215,8.346 1.237,12.006l-110.933,136.533c-1.681,2.073 -4.139,3.148 -6.622,3.148"/>
   <path id="svg_6" fill="#878787" d="m162.142,92c-2.901,0 -5.726,-1.476 -7.322,-4.139l-25.6,-42.667c-2.432,-4.045 -1.118,-9.284 2.918,-11.708c4.045,-2.432 9.293,-1.118 11.708,2.918l25.6,42.667c2.432,4.045 1.118,9.284 -2.918,11.708c-1.374,0.828 -2.893,1.221 -4.386,1.221"/>
   <path id="svg_7" fill="#878787" d="m179.2,49.333l-59.733,0c-4.71,0 -8.533,-3.814 -8.533,-8.533s3.823,-8.533 8.533,-8.533l59.733,0c4.71,0 8.533,3.814 8.533,8.533s-3.823,8.533 -8.533,8.533"/>
   <path id="svg_8" fill="#878787" d="m349.875,92c-3.132,0 -6.144,-1.724 -7.646,-4.719l-23.236,-46.481l-28.86,0c-4.71,0 -8.533,-3.814 -8.533,-8.533c0,-4.719 3.823,-8.533 8.533,-8.533l34.133,0c3.234,0 6.187,1.826 7.637,4.719l25.6,51.2c2.108,4.215 0.393,9.335 -3.823,11.452c-1.219,0.605 -2.525,0.895 -3.805,0.895"/>
  </g>
  <g id="svg_9"/>
  <g id="svg_10"/>
  <g id="svg_11"/>
  <g id="svg_12"/>
  <g id="svg_13"/>
  <g id="svg_14"/>
  <g id="svg_15"/>
  <g id="svg_16"/>
  <g id="svg_17"/>
  <g id="svg_18"/>
  <g id="svg_19"/>
  <g id="svg_20"/>
  <g id="svg_21"/>
  <g id="svg_22"/>
  <g id="svg_23"/>
 </g>
</svg>