
<svg width="30px" height="30px" viewBox="0 0 30 30" version="1.1" xmlns="http://www.w3.org/2000/svg" xmlns:xlink="http://www.w3.org/1999/xlink">
    <g id="Connect-Screen" stroke="none" stroke-width="1" fill="none" fill-rule="evenodd">
        <g id="Artboard" transform="translate(-47.000000, -246.000000)" fill="#FFFFFF" fill-rule="nonzero">
            <g id="success" transform="translate(47.000000, 246.000000)">
                <path d="M15,0 C6.72923077,0 0,6.72865385 0,15 C0,23.2713462 6.72923077,30 15,30 C23.2707692,30 30,23.2713462 30,15 C30,6.72865385 23.2707692,0 15,0 Z M15,28.8461538 C7.36557692,28.8461538 1.15384615,22.6344231 1.15384615,15 C1.15384615,7.36557692 7.36557692,1.15384615 15,1.15384615 C22.6344231,1.15384615 28.8461538,7.36557692 28.8461538,15 C28.8461538,22.6344231 22.6344231,28.8461538 15,28.8461538 Z" id="Shape"></path>
                <path d="M22.0684615,8.84769231 L13.2017308,18.8226923 L7.86,14.5494231 C7.61192308,14.3503846 7.24788462,14.3913462 7.04942308,14.6394231 C6.85038462,14.8886538 6.89076923,15.2515385 7.13942308,15.4505769 L12.9086538,20.0659615 C13.0148077,20.1507692 13.1423077,20.1923077 13.2692308,20.1923077 C13.4284615,20.1923077 13.5871154,20.1265385 13.7007692,19.9984615 L22.9315385,9.61384615 C23.1432692,9.37615385 23.1219231,9.01096154 22.8836538,8.79980769 C22.6448077,8.5875 22.2807692,8.60884615 22.0684615,8.84769231 Z" id="Path"></path>
            </g>
        </g>
    </g>
</svg>