
<svg width="64px" height="21px" viewBox="0 0 64 21" version="1.1" xmlns="http://www.w3.org/2000/svg" xmlns:xlink="http://www.w3.org/1999/xlink">
    <g id="Home-Screen" stroke="none" stroke-width="1" fill="none" fill-rule="evenodd">
        <g id="running" transform="translate(20.000000, 1.000000)" fill="#000000" fill-rule="nonzero">
            <path d="M19.6267836,4.03274854 L19.5779337,3.98385965 C19.1188304,3.52475634 18.3706433,3.52374269 17.9087719,3.98522417 L16.1119298,5.80097466 C16.017271,5.89594542 15.865848,5.89976608 15.7670955,5.80888889 L13.2478752,3.48307992 C13.0031969,3.25695906 12.6848343,3.13270955 12.351345,3.13270955 L8.60382066,3.13270955 C8.51536062,3.13270955 8.43072125,3.16643275 8.36670565,3.22701754 L5.19048733,6.242846 C4.72518519,6.70849903 4.69317739,7.45910331 5.11961014,7.91614035 C5.34744639,8.16050682 5.65512671,8.29504873 5.98584795,8.29504873 L5.99169591,8.29504873 C6.31968811,8.29333333 6.63493177,8.15395712 6.85278752,7.91578947 L9.09598441,5.54179337 L9.89890838,5.54179337 L4.66393762,11.3925146 L1.43508772,11.3925146 C0.669668616,11.3925146 0.0402339181,11.9648343 0.00202729045,12.6954776 C-0.0182846004,13.077154 0.115243665,13.439883 0.37785575,13.7165692 C0.636647173,13.9894737 1.00042885,14.145731 1.37660819,14.145731 L6.19477583,14.145731 C6.28974659,14.145731 6.38062378,14.1065107 6.4460039,14.0366472 L8.91461988,11.4014425 L10.9905653,13.5723587 L10.3638596,17.5776218 C10.2058869,18.2411696 10.5242495,18.917076 11.1206628,19.1837817 C11.3044444,19.2663938 11.4995712,19.3076803 11.6936842,19.3076803 C11.9025731,19.3076803 12.1104483,19.2598441 12.3017934,19.1651852 C12.671423,18.9821053 12.937115,18.6472515 13.0338012,18.2307992 L14.1044834,12.4878752 C14.1251462,12.3763743 14.0896686,12.2614035 14.0091618,12.1812476 L11.1516569,9.32752437 L13.4217154,7.06093567 L15.0041326,8.64300195 C15.4460429,9.08491228 16.2162573,9.08491228 16.6578168,8.64300195 L19.6268616,5.67430799 C19.8460819,5.45508772 19.9669006,5.16323587 19.9669006,4.85348928 C19.9668226,4.54346979 19.8460039,4.25196881 19.6267836,4.03274854 Z" id="Path"></path>
            <path d="M15.8309942,4.16518519 C16.9698246,4.16518519 17.8959454,3.23906433 17.8959454,2.10023392 C17.8959454,0.961403509 16.9698246,0.0352826511 15.8309942,0.0352826511 C14.6922027,0.0352826511 13.7660429,0.961403509 13.7660429,2.10023392 C13.7660819,3.23906433 14.6922027,4.16518519 15.8309942,4.16518519 Z" id="Path"></path>
        </g>
        <g id="bike" transform="translate(44.000000, 2.000000)" fill="#000000" fill-rule="nonzero">
            <path d="M12.9166797,3.34636719 C13.8333594,3.34636719 14.5833594,2.59636719 14.5833594,1.6796875 C14.5833594,0.763007813 13.8333594,0.0130078125 12.9166797,0.0130078125 C12,0.0130078125 11.25,0.763007813 11.25,1.6796875 C11.25,2.59636719 12,3.34636719 12.9166797,3.34636719 Z" id="Path"></path>
            <path d="M4.16667969,8.76300781 C1.875,8.76300781 0,10.6380078 0,12.9296875 C0,15.2213672 1.875,17.0963672 4.16667969,17.0963672 C6.45835938,17.0963672 8.33335938,15.2213672 8.33335938,12.9296875 C8.33335938,10.6380078 6.45832031,8.76300781 4.16667969,8.76300781 Z M4.16667969,15.8463672 C2.54167969,15.8463672 1.25,14.5546875 1.25,12.9296875 C1.25,11.3046875 2.54167969,10.0130078 4.16667969,10.0130078 C5.79167969,10.0130078 7.08335938,11.3046875 7.08335938,12.9296875 C7.08335938,14.5546875 5.79167969,15.8463672 4.16667969,15.8463672 Z" id="Shape"></path>
            <path d="M15.7916797,7.88800781 L15.7916797,6.22132813 C14.5416797,6.22132813 13.5,5.76300781 12.75,5.01300781 L11.125,3.4296875 C10.875,3.13800781 10.4583203,2.9296875 10,2.9296875 C9.54167969,2.9296875 9.125,3.09636719 8.83332031,3.4296875 L6.54164063,5.72136719 C6.24996094,6.01304688 6.04164063,6.4296875 6.04164063,6.88804688 C6.04164063,7.34640625 6.24996094,7.76304688 6.54164063,8.09636719 L9.16664062,10.4296875 L9.16664062,14.5963672 L10.8333203,14.5963672 L10.8333203,9.38800781 L9,7.5546875 L10.9583203,5.5546875 L11.5833203,6.1796875 C12.625,7.26300781 14.0833203,7.88800781 15.7916797,7.88800781 Z" id="Path"></path>
            <path d="M15.8333203,8.76300781 C13.5416406,8.76300781 11.6666406,10.6380078 11.6666406,12.9296875 C11.6666406,15.2213672 13.5416406,17.0963672 15.8333203,17.0963672 C18.125,17.0963672 20,15.2213672 20,12.9296875 C20,10.6380078 18.125,8.76300781 15.8333203,8.76300781 Z M15.8333203,15.8463672 C14.2083203,15.8463672 12.9166406,14.5546875 12.9166406,12.9296875 C12.9166406,11.3046875 14.2083203,10.0130078 15.8333203,10.0130078 C17.4583203,10.0130078 18.75,11.3046875 18.75,12.9296875 C18.75,14.5546875 17.4583203,15.8463672 15.8333203,15.8463672 Z" id="Shape"></path>
        </g>
        <g id="weight-lifting" fill="#000000" fill-rule="nonzero">
            <path d="M19.6665955,3.33328246 L18.999939,3.33328246 L18.999939,1.66671754 C18.999939,1.29852297 18.701477,1.00006102 18.3332825,1.00006102 C17.9650879,1.00006102 17.666626,1.29852297 17.666626,1.66671754 L17.666626,0.666656484 C17.666626,0.298461914 17.3681641,0 16.9999695,0 C16.6317749,0 16.333313,0.298461914 16.333313,0.666656484 L16.333313,3.33328246 L11.9389343,3.33328246 C11.889801,3.19244383 11.8103027,3.06411742 11.7060852,2.9573059 C11.4634705,2.7157593 11.1138916,2.61535645 10.7800293,2.69180297 C10.4463196,2.76809691 10.1748657,3.01025391 10.0614929,3.33328246 L3.66668703,3.33328246 L3.66668703,0.666656484 C3.66668703,0.298461914 3.36822508,0 3.00003051,0 C2.63183594,0 2.33337402,0.298461914 2.33337402,0.666656484 L2.33337402,1.66671754 C2.33337402,1.29852297 2.03491211,1.00006102 1.66671754,1.00006102 C1.29852297,1.00006102 1.00006102,1.29852297 1.00006102,1.66671754 L1.00006102,3.33328246 L0.333404531,3.33328246 C0.149230937,3.33328246 -5.68434189e-14,3.48251344 -5.68434189e-14,3.66668703 C-5.68434189e-14,3.85070801 0.149230937,3.99993898 0.333404531,3.99993898 L1.00006102,3.99993898 L1.00006102,5.66665648 C1.00006102,6.03485109 1.29852297,6.33331297 1.66671754,6.33331297 C2.03491211,6.33331297 2.33337402,6.03485109 2.33337402,5.66665648 L2.33337402,6.66671754 C2.33337402,7.03491211 2.63183594,7.33337402 3.00003051,7.33337402 C3.36822508,7.33337402 3.66668703,7.03491211 3.66668703,6.66671754 L3.66668703,3.99993898 L10,3.99993898 L10,6.83624266 C10.2191162,7.2454834 10.3337097,7.70248414 10.3334045,8.16665648 C10.3334045,8.23577883 10.3292847,8.30474852 10.3208923,8.37326051 C10.2716064,9.13619996 9.91027832,9.84512328 9.32189941,10.3334045 L9.66659547,10.3334045 C9.85076906,10.3334045 10,10.4826355 10,10.6666565 C10,10.8508301 9.85076906,11.000061 9.66659547,11.000061 L5.33340453,11.000061 C5.06073,10.9989929 4.79461672,11.0826111 4.5715332,11.2393188 C4.03167727,11.6368103 3.44680785,11.9692993 2.82913207,12.230072 L2.29125977,12.4404907 C1.77886961,12.6443481 1.52786254,13.2244873 1.73004148,13.7376404 C1.82647703,13.9845276 2.01721191,14.1828918 2.26013184,14.2889404 C2.50305176,14.394989 2.77816773,14.400177 3.02490234,14.3031311 L3.54537965,14.0997314 C3.64059449,14.0625 3.74771117,14.0710449 3.83575437,14.1229248 C3.9239502,14.1746521 3.98345945,14.2640686 3.99719238,14.365387 L4.58724977,18.7120056 C4.60968016,18.8768005 4.75036621,18.9997864 4.91668703,18.999939 L11.0699463,18.999939 C11.2400818,19.0007019 11.3832092,18.8729859 11.4019775,18.7039184 L11.9999695,13.314209 L11.9999695,3.99993898 L16.333313,3.99993898 L16.333313,6.66671754 C16.333313,7.03491211 16.6317749,7.33337402 16.9999695,7.33337402 C17.3681641,7.33337402 17.666626,7.03491211 17.666626,6.66671754 L17.666626,5.66665648 C17.666626,6.03485109 17.9650879,6.33331297 18.3332825,6.33331297 C18.701477,6.33331297 18.999939,6.03485109 18.999939,5.66665648 L18.999939,3.99993898 L19.6665955,3.99993898 C19.8507691,3.99993898 20,3.85070801 20,3.66668703 C20,3.48251344 19.8507691,3.33328246 19.6665955,3.33328246 L19.6665955,3.33328246 Z" id="Path"></path>
            <path d="M6.19857789,9.89227297 C6.53121949,10.1492309 6.93374633,10.2996826 7.35336305,10.3239441 C7.40203859,10.329895 7.4510193,10.3330994 7.5,10.3334045 C8.63937379,10.3343201 9.58358766,9.45007324 9.65728758,8.31298828 C9.66323852,8.26446531 9.66629027,8.21563719 9.66659547,8.16665648 C9.6697998,7.1472168 8.96179199,6.26342773 7.96615602,6.04400633 C6.97052,5.82473754 5.95657348,6.32919312 5.53115844,7.2557068 C5.10559082,8.18206789 5.38345336,9.27993773 6.19857789,9.89227297 L6.19857789,9.89227297 Z" id="Path"></path>
        </g>
    </g>
</svg>