<svg width="512.001" height="268.001" xmlns="http://www.w3.org/2000/svg">

 <g class="currentLayer">
  <title>Layer 1</title>
  <g fill="#919191" id="svg_1">
   <g fill="#919191" id="svg_2">
    <path fill="#919191" id="svg_3" d="m504.433,99.101998l-35.864,0l0,-37.747c0,-11.405 -9.278,-20.684 -20.684,-20.684l-24.31,0c-1.924,0 -3.781,0.284 -5.549,0.778l0,-7.614c0,-11.405 -9.278,-20.684 -20.684,-20.684l-40.158,0c-11.405,0 -20.684,9.278 -20.684,20.684l0,65.267l-161.001,0l0,-65.267c0,-11.405 -9.278,-20.684 -20.684,-20.684l-40.158,0c-11.405,0 -20.684,9.278 -20.684,20.684l0,7.614c-1.769,-0.494 -3.625,-0.778 -5.549,-0.778l-24.308,0c-11.405,0 -20.684,9.278 -20.684,20.684l0,37.747l-35.865,0c-4.18,0 -7.567,3.388 -7.567,7.567l0,58.663c0,4.179 3.387,7.567 7.567,7.567l35.865,0l0,37.747c0,11.405 9.278,20.684 20.684,20.684l24.309,0c1.924,0 3.781,-0.285 5.549,-0.778l0,7.614c0,11.405 9.278,20.684 20.684,20.684l40.158,0c11.405,0 20.684,-9.279 20.684,-20.684l0,-65.267l161.002,0l0,65.267c0,11.405 9.279,20.684 20.684,20.684l40.158,0c11.405,0 20.684,-9.278 20.684,-20.684l0,-7.614c1.769,0.494 3.625,0.778 5.549,0.778l24.31,0c11.405,0 20.684,-9.278 20.684,-20.684l0,-37.747l35.864,0c4.18,0 7.567,-3.388 7.567,-7.567l0,-58.663c-0.002,-4.179 -3.389,-7.567 -7.569,-7.567zm-461.001,58.663l-28.297,0l0,-43.529l28.297,0l0,43.529zm50.542,52.882c0,3.059 -2.489,5.549 -5.549,5.549l-24.309,0c-3.059,0 -5.549,-2.489 -5.549,-5.549l0,-45.315l0,-58.663l0,-45.315c0,-3.06 2.49,-5.549 5.549,-5.549l24.309,0c3.06,0 5.549,2.489 5.549,5.549l0,149.293zm66.39,-103.977l0,58.663l0,72.833c0,3.06 -2.49,5.549 -5.549,5.549l-40.158,0c-3.059,0 -5.549,-2.489 -5.549,-5.549l0,-27.52l0,-149.292l0,-27.519c0,-3.06 2.49,-5.549 5.549,-5.549l40.158,0c3.059,0 5.549,2.489 5.549,5.549l0,72.835zm176.136,51.095l-161.001,0l0,-43.529l161.001,0l0,43.529zm66.392,-96.412l0,149.293l0,27.521c0,3.06 -2.49,5.549 -5.549,5.549l-40.158,0c-3.059,0 -5.549,-2.489 -5.549,-5.549l0,-72.834l0,-58.663l0,-72.834c0,-3.06 2.49,-5.549 5.549,-5.549l40.158,0c3.059,0 5.549,2.489 5.549,5.549l0,27.517zm50.543,45.316l0,58.663l0,45.315c0,3.06 -2.49,5.549 -5.549,5.549l-24.31,0c-3.059,0 -5.549,-2.489 -5.549,-5.549l0,-149.293c0,-3.06 2.49,-5.549 5.549,-5.549l24.31,0c3.059,0 5.549,2.489 5.549,5.549l0,45.315zm43.43,51.096l-28.296,0l0,-43.529l28.296,0l0,43.529z"/>
   </g>
  </g>
  <g id="svg_4"/>
  <g id="svg_5"/>
  <g id="svg_6"/>
  <g id="svg_7"/>
  <g id="svg_8"/>
  <g id="svg_9"/>
  <g id="svg_10"/>
  <g id="svg_11"/>
  <g id="svg_12"/>
  <g id="svg_13"/>
  <g id="svg_14"/>
  <g id="svg_15"/>
  <g id="svg_16"/>
  <g id="svg_17"/>
  <g id="svg_18"/>
 </g>
 <g>
  <title>Layer 2</title>
  <rect fill="none" y="0" x="0" height="100%" width="100%" id="backgroundrect"/>
 </g>
 <g>
  <title>background</title>
  <rect fill="none" id="canvas_background" height="270.001" width="514.001" y="-1" x="-1"/>
 </g>
</svg>