
<svg width="25px" height="24px" viewBox="0 0 25 24" version="1.1" xmlns="http://www.w3.org/2000/svg" xmlns:xlink="http://www.w3.org/1999/xlink">
    <g id="Settings-Screen" stroke="none" stroke-width="1" fill="none" fill-rule="evenodd" opacity="0.800000012">
        <g id="Artboard" transform="translate(-97.000000, -441.000000)" fill="#A7A7A7" fill-rule="nonzero">
            <g id="goal" transform="translate(97.000000, 441.000000)">
                <path d="M11.6650398,0.37993282 C11.6450987,0.152774415 11.4473047,-0.015740969 11.221361,0.0011688793 C10.9938834,0.0158296344 10.8206322,0.212375383 10.8340645,0.441241433 C10.8469992,0.662568856 11.0297027,0.833333333 11.2475207,0.833333333 C11.2557293,0.833333333 11.2639379,0.833083434 11.2722709,0.832583636 C11.2762923,0.832333736 11.2844594,0.831750638 11.2884808,0.831417439 C11.5165388,0.811217251 11.6851467,0.60904877 11.6650398,0.37993282 Z" id="Path"></path>
                <path d="M18.1923082,2.60619666 C18.0221109,2.45337754 17.7601732,2.4670399 17.6068297,2.63717576 C17.4533201,2.80747773 17.4668528,3.07005255 17.6370916,3.22366069 C17.6393747,3.22569551 17.6447712,3.23047111 17.6470543,3.2324644 C17.7254696,3.30019484 17.8219839,3.33333333 17.9180416,3.33333333 C18.0345644,3.33333333 18.1504646,3.28449766 18.2325328,3.18931792 C18.3814347,3.01664891 18.3631696,2.7563996 18.1923082,2.60619666 Z" id="Path"></path>
                <path d="M16.4147771,0.868485444 C16.2059178,0.7765651 15.9619375,0.871063039 15.8691803,1.0803055 C15.7761742,1.29013001 15.8703828,1.53583296 16.0796568,1.6290421 L16.0937134,1.63511192 C16.1454617,1.65652259 16.1990346,1.66666667 16.2517366,1.66666667 C16.4146527,1.66666667 16.5691928,1.56975743 16.6352052,1.40940611 C16.7219085,1.19875013 16.6232632,0.957703471 16.4147771,0.868485444 Z" id="Path"></path>
                <path d="M19.9064189,3.48867781 C19.9057943,3.48784674 19.9025048,3.48389915 19.9018802,3.48310963 C19.7557239,3.30675607 19.4953908,3.28307051 19.3180878,3.42838351 C19.1407848,3.57361341 19.1159257,3.83614918 19.2607912,4.01362469 C19.3431134,4.11439221 19.4629532,4.16666667 19.5838341,4.16666667 C19.6763164,4.16666667 19.7693401,4.13612476 19.8466239,4.07325413 C20.0248846,3.92831511 20.0516591,3.66656886 19.9064189,3.48867781 Z" id="Path"></path>
                <path d="M12.9542237,0.00197183132 L12.9500678,0.00159700647 C12.7214945,-0.0183520046 12.5218045,0.150902236 12.501607,0.380003509 C12.4814925,0.60914643 12.65259,0.811426904 12.8812049,0.831667445 C12.893631,0.832750272 12.905974,0.833333333 12.9181922,0.833333333 C13.131181,0.833333333 13.3126267,0.670076291 13.3317022,0.453427531 C13.3518582,0.224326258 13.1828802,0.0222123728 12.9542237,0.00197183132 Z" id="Path"></path>
                <path d="M14.6942975,0.0157737634 C14.6905233,0.0147336113 14.6826846,0.0127365192 14.6788689,0.0117795792 C14.4563991,-0.0422667252 14.2325191,0.0947837188 14.1784777,0.318000365 C14.1246022,0.540343283 14.2601412,0.764475263 14.481118,0.819936174 C14.5159566,0.8290063 14.5509197,0.833333333 14.5853852,0.833333333 C14.7677905,0.833291727 14.9349747,0.711635535 14.9852834,0.526613275 C15.045546,0.304936054 14.9152743,0.0762274049 14.6942975,0.0157737634 Z" id="Path"></path>
                <path d="M17.3151608,1.73869882 C17.3102632,1.73541609 17.305324,1.73225803 17.3003019,1.72918307 C17.1056015,1.60813781 16.8500546,1.66822413 16.7291502,1.86315147 C16.6087439,2.05708153 16.6676811,2.31197053 16.8601403,2.43376376 C16.9295368,2.47851685 17.0074419,2.5 17.0845169,2.5 C17.2186199,2.5 17.3502741,2.43505192 17.4302544,2.31492083 C17.5573845,2.12398262 17.5058767,1.86597711 17.3151608,1.73869882 Z" id="Path"></path>
                <path d="M21.2928487,10.0021706 C21.0645127,9.97898959 20.8594975,10.1441128 20.8359684,10.3715349 L20.8349689,10.3816765 C20.8147714,10.6093884 20.9839725,10.8116012 21.2130998,10.8316775 C21.2256347,10.8327952 21.2380864,10.8333333 21.2504131,10.8333333 C21.4637156,10.8333333 21.645285,10.6722668 21.6643998,10.4570148 L21.2502049,10.413923 L21.6644414,10.4563111 C21.6880122,10.228889 21.5216429,10.0255586 21.2928487,10.0021706 Z" id="Path"></path>
                <path d="M21.4219224,13.3701879 C21.2127288,13.2759357 20.9664524,13.3686951 20.8719577,13.5773934 L20.8661376,13.590704 C20.7768811,13.801683 20.8760319,14.0449225 21.0875535,14.13395 C21.1403508,14.1561343 21.1950604,14.1666667 21.2489802,14.1666667 C21.4096585,14.1666252 21.562438,14.0731609 21.6303677,13.9173731 C21.7237815,13.708965 21.6307419,13.4641913 21.4219224,13.3701879 Z" id="Path"></path>
                <path d="M20.779223,5.21375884 C20.7773522,5.21043939 20.7733198,5.20359304 20.7713659,5.20035658 C20.6528039,5.00421885 20.3975546,4.94148133 20.2010043,5.05969508 C20.0051607,5.17753539 19.9417641,5.43134849 20.0584139,5.62727876 C20.1354875,5.7593097 20.2746691,5.83333333 20.4179246,5.83333333 C20.4873491,5.83333333 20.5577713,5.81590624 20.6224982,5.77930936 C20.8222495,5.66632373 20.8924223,5.41313303 20.779223,5.21375884 Z" id="Path"></path>
                <path d="M21.6659365,9.55998028 L21.6656865,9.55582405 C21.6521462,9.32669127 21.4554165,9.15375068 21.2253986,9.16742467 C20.995714,9.18089084 20.8205654,9.3796416 20.834064,9.60877438 C20.8471043,9.82963627 21.0306687,10 21.2496044,10 C21.2578119,10 21.2661444,9.99975063 21.2744769,9.99925188 C21.5041615,9.9857857 21.6794351,9.78907149 21.6659365,9.55998028 Z" id="Path"></path>
                <path d="M21.6376284,6.09843623 L21.2496366,6.24851448 L21.6372539,6.09748164 C21.5536044,5.88394387 21.3123112,5.77848236 21.0981937,5.86190528 C20.8841177,5.9453697 20.7783283,6.18605105 20.8619777,6.39958882 C20.8625187,6.40095845 20.8645995,6.40622945 20.8651822,6.40759908 C20.930437,6.5690909 21.0857919,6.66666667 21.2502192,6.66666667 C21.3016574,6.66666667 21.3540111,6.65712076 21.4047001,6.63694985 C21.6176108,6.55240632 21.7214859,6.31110242 21.6376284,6.09843623 Z" id="Path"></path>
                <path d="M21.6580305,7.83480958 C21.6574478,7.83207203 21.655991,7.82526965 21.6553667,7.82249062 C21.6043797,7.59925617 21.3816601,7.45976575 21.1575253,7.51036888 C20.9339732,7.56088905 20.7936653,7.7824229 20.8433204,8.00524257 C20.8850257,8.19969131 21.0575075,8.33333333 21.2499263,8.33333333 C21.2777298,8.33333333 21.3059912,8.33055431 21.3342942,8.32474739 C21.5594279,8.27854093 21.7043975,8.05920541 21.6580305,7.83480958 Z" id="Path"></path>
                <path d="M21.3545319,11.6799473 C21.1319961,11.6228008 20.9054248,11.7553145 20.8480956,11.9768608 C20.787646,12.1974961 20.9183219,12.4251298 21.139984,12.4852993 C21.1766364,12.4952378 21.2134553,12.5 21.2496917,12.5 C21.4326628,12.5000414 21.6003655,12.3789156 21.6508303,12.1947216 C21.6513711,12.1928581 21.6529104,12.1869364 21.6534097,12.1850729 C21.7106973,11.9636094 21.5770261,11.737011 21.3545319,11.6799473 Z" id="Path"></path>
                <path d="M3.01518658,6.67841879 C2.79173614,6.62446693 2.56691253,6.76138328 2.51273516,6.98442308 L2.51177811,6.98845492 C2.45764235,7.21157786 2.59529116,7.43424358 2.81861677,7.48832013 C2.8512397,7.49621755 2.88390425,7.5 2.91606946,7.5 C3.10415065,7.5 3.27529622,7.37081481 3.32152591,7.1803207 C3.37566167,6.95719776 3.23851219,6.73253691 3.01518658,6.67841879 Z" id="Path"></path>
                <path d="M3.9115849,5.86571449 C3.69985021,5.7771068 3.45622851,5.87661942 3.36742716,6.08771056 L3.36613837,6.0907374 C3.27687971,6.30170415 3.37603291,6.5448881 3.58755973,6.63395189 C3.64035829,6.65613491 3.69506924,6.66666667 3.74899029,6.66666667 C3.91112759,6.66666667 4.06524118,6.5714248 4.13221636,6.41307535 L4.1342119,6.40843143 C4.22301325,6.19725736 4.1233196,5.95428072 3.9115849,5.86571449 Z" id="Path"></path>
                <path d="M3.32154432,11.9891532 C3.27063928,11.7660952 3.04776338,11.6262802 2.82380616,11.6770957 C2.59984895,11.7277869 2.45952738,11.9496853 2.51043242,12.1727019 C2.5108899,12.1746484 2.51226233,12.1805706 2.5127614,12.1825171 C2.55892529,12.3721537 2.72948212,12.5 2.91725683,12.5 C2.94952996,12.5 2.98238534,12.4961899 3.01515754,12.4883211 C3.23836615,12.4343996 3.37565171,12.2114244 3.32154432,11.9891532 Z" id="Path"></path>
                <path d="M4.93757297,14.3671668 C4.8190569,14.1710805 4.56383626,14.1080128 4.36745838,14.2263944 C4.1710805,14.3447344 4.10796052,14.599576 4.22643506,14.7956623 C4.22739016,14.797155 4.23046311,14.8021722 4.23137669,14.8036235 C4.31011055,14.9302565 4.44610919,15 4.5852223,15 C4.65988659,15 4.73546446,14.9798897 4.80348454,14.9377201 C4.99832595,14.8169336 5.05853908,14.5617603 4.93757297,14.3671668 Z" id="Path"></path>
                <path d="M3.33219192,10.3851262 C3.31531841,10.1562015 3.11575273,9.98434162 2.88610637,10.0011328 C2.65662667,10.0179239 2.48426691,10.2171732 2.50114042,10.446098 L2.50147372,10.4502127 C2.5175973,10.6686638 2.69999783,10.8333333 2.91606206,10.8333333 C2.92643614,10.8333333 2.93689355,10.8329177 2.94739262,10.8321696 C3.17687232,10.8153784 3.34906543,10.614051 3.33219192,10.3851262 Z" id="Path"></path>
                <path d="M2.95342261,8.33495872 C2.7246578,8.31487416 2.52221365,8.48325319 2.5019734,8.71105768 C2.50180681,8.71308684 2.50130706,8.71917433 2.50114047,8.72120349 C2.48427359,8.94929786 2.65648231,9.14877691 2.88587181,9.16554856 C2.89632511,9.16633537 2.90669511,9.16666667 2.91702347,9.16666667 C3.13308606,9.16666667 3.31558149,9.00155914 3.33169873,8.78385905 C3.35189733,8.55605455 3.18256223,8.35508469 2.95342261,8.33495872 Z" id="Path"></path>
                <path d="M10.8242157,0.329903346 C10.7767261,0.105116197 10.5567808,-0.0385544644 10.3324391,0.00914153139 L10.31813,0.0123878557 C10.0954058,0.0657441093 9.95832883,0.290073444 10.0114176,0.513570388 C10.056792,0.704770566 10.2271324,0.833333333 10.4148512,0.833333333 C10.4458749,0.833333333 10.4773549,0.829795672 10.5088349,0.822470633 C10.7304807,0.772901757 10.8714564,0.553317051 10.8242157,0.329903346 Z" id="Path"></path>
                <path d="M7.44450907,1.04154403 C7.33010974,0.842647047 7.07637311,0.774269713 6.87782368,0.888952427 C6.87392323,0.891238599 6.86649578,0.895686244 6.86263682,0.898097116 C6.66798784,1.01909798 6.60836077,1.27510771 6.7291087,1.47018055 C6.80757411,1.5969592 6.94325993,1.66666667 7.08214079,1.66666667 C7.15583438,1.66666667 7.23044083,1.64704715 7.2978273,1.60589605 C7.49201985,1.4897585 7.55782955,1.23852895 7.44450907,1.04154403 Z" id="Path"></path>
                <path d="M9.14013429,1.10327853 C9.05971469,0.888212818 8.82057111,0.779328265 8.6061465,0.859889525 C8.60191608,0.861469973 8.59386997,0.86467246 8.58972249,0.86637768 C8.37803522,0.953967775 8.27750035,1.19694087 8.36480476,1.40926159 C8.43074966,1.56976025 8.58549206,1.66666667 8.7485709,1.66666667 C8.80028995,1.66666667 8.85283849,1.65693443 8.9036451,1.63634702 C9.11400518,1.55345668 9.21980734,1.3162647 9.14013429,1.10327853 Z" id="Path"></path>
                <path d="M6.5709291,2.65004724 C6.4244823,2.47354517 6.1627626,2.449286 5.98638718,2.59575489 L5.98024372,2.60094735 C5.80523814,2.74911936 5.78352848,3.01115162 5.93159416,3.18628289 C6.01370068,3.28336111 6.13075849,3.33333333 6.24864651,3.33333333 C6.34341353,3.33333333 6.43872018,3.30105701 6.51671722,3.23500893 C6.69309263,3.08845696 6.7173759,2.82654932 6.5709291,2.65004724 Z" id="Path"></path>
                <path d="M5.69229119,3.43709126 C5.51998249,3.285249 5.25736342,3.30202324 5.10571016,3.47455234 C5.10496207,3.47542643 5.10147101,3.47942228 5.10072293,3.48029638 C4.951023,3.65361632 4.97068098,3.91401247 5.14311436,4.0647309 C5.22145539,4.13324306 5.31849851,4.16666667 5.41529228,4.16666667 C5.53145311,4.16666667 5.64728146,4.11838349 5.72973695,4.02452267 C5.88134865,3.85195194 5.86459988,3.58893352 5.69229119,3.43709126 Z" id="Path"></path>
                <path d="M4.13422914,12.7586393 C4.04780931,12.5465543 3.80534327,12.4444085 3.59268148,12.530594 C3.37997812,12.6167794 3.27759619,12.8585879 3.36401602,13.0706729 C3.36459797,13.0720824 3.36675951,13.0773057 3.36738302,13.0787567 C3.4341412,13.2375717 3.58856625,13.3333333 3.75113863,13.3333333 C3.80467819,13.3333333 3.85913224,13.3229281 3.91154946,13.3009982 C4.12325519,13.2124498 4.22301835,12.9697708 4.13422914,12.7586393 Z" id="Path"></path>
                <path d="M4.80348089,4.22930406 C4.60845816,4.10809903 4.35221026,4.16811923 4.23113157,4.36336164 L4.22892863,4.36689714 C4.10784994,4.56209796 4.16890884,4.81673667 4.36397314,4.9379001 C4.431724,4.97999327 4.50703969,5 4.58152407,5 C4.72139012,5 4.85842975,4.92945651 4.93744471,4.80205397 C5.0585234,4.60689474 4.99850362,4.35046749 4.80348089,4.22930406 Z" id="Path"></path>
                <path d="M24.5117188,22.3652858 L23.7372559,22.3652858 C23.7350098,22.3617526 23.7331543,22.3581227 23.7308105,22.3546379 L15.6476563,10.4664474 C15.4783691,10.2174781 15.2366699,10.0333646 14.9606445,9.93303153 L14.9606445,8.5839796 L17.4002441,7.06543103 C17.553125,6.97027672 17.6405762,6.79927968 17.6275879,6.62078065 C17.6145996,6.44228161 17.5033691,6.28546576 17.3383301,6.21296263 L14.6700684,5.04144173 C14.5190918,4.97518219 14.3444824,4.98902458 14.2060059,5.0783225 C14.0675781,5.16766881 13.984082,5.32027387 13.984082,5.48401091 L13.984082,8.30906786 C13.9839844,8.31424665 13.9839844,8.31947385 13.984082,8.32465264 L13.984082,9.93298313 C13.7080566,10.0333162 13.4663574,10.2174297 13.2970703,10.466399 L9.98613281,15.3359185 L9.19882813,14.1780463 C8.93500977,13.7899755 8.4956543,13.5583333 8.02353516,13.5583333 C7.55141602,13.5583333 7.11206055,13.7899755 6.84824219,14.1780463 L1.28154297,22.3652858 L0.48828125,22.3652858 C0.218603516,22.3652858 0,22.5820208 0,22.8492854 C0,23.1165499 0.218603516,23.3332849 0.48828125,23.3332849 L1.54018555,23.3332849 C1.54038086,23.3332849 1.540625,23.3333333 1.54082031,23.3333333 C1.54106445,23.3333333 1.54135742,23.3332849 1.54160156,23.3332849 L24.5117188,23.3332849 C24.7813965,23.3332849 25,23.1165499 25,22.8492854 C25,22.5820208 24.7813965,22.3652858 24.5117188,22.3652858 Z M14.9606445,6.22777301 L16.1035156,6.72958374 L14.9606445,7.44096627 L14.9606445,6.22777301 Z M2.45917969,22.3652858 L7.65810547,14.7191094 C7.74140625,14.5966575 7.87460937,14.5264292 8.02358398,14.5264292 C8.17255859,14.5264292 8.30576172,14.5966575 8.3890625,14.7191094 L9.39736328,16.2019872 L7.66630859,18.7479216 C7.515625,18.9695934 7.57470703,19.2703992 7.79833984,19.4197614 C8.02207031,19.5693173 8.32548828,19.5105597 8.47612305,19.2889363 L14.1068848,11.0074621 C14.1901855,10.8850102 14.3233887,10.8147819 14.4723633,10.8147819 C14.6213379,10.8147819 14.7545898,10.8850102 14.8378418,11.0074621 L22.5603516,22.3652858 L2.45917969,22.3652858 Z" id="Shape"></path>
                <circle id="Oval" cx="7.08333333" cy="20.4166667" r="1"></circle>
            </g>
        </g>
    </g>
</svg>