
<svg width="45px" height="52px" viewBox="0 0 45 52" version="1.1" xmlns="http://www.w3.org/2000/svg" xmlns:xlink="http://www.w3.org/1999/xlink">
    <g id="Connect-Screen" stroke="none" stroke-width="1" fill="none" fill-rule="evenodd">
        <g id="Artboard" transform="translate(-31.000000, -601.000000)" fill="#FFFFFF">
            <g id="Home-Icon" transform="translate(9.000000, 601.000000)">
                <g id="Group" transform="translate(22.000000, 0.000000)" fill-rule="nonzero">
                    <path d="M6.00022392,38.1335165 C6.00022392,38.1335165 5.96066349,39.1291209 6.93319096,39.1291209 C8.14308107,39.1291209 18.160114,39.1159341 18.160114,39.1159341 L18.1765976,29.9164835 C18.1765976,29.9164835 18.0183558,28.4 19.4903338,28.4 L24.1485756,28.4 C25.8892349,28.4 25.7820921,29.9164835 25.7820921,29.9164835 L25.7623118,39.0862637 C25.7623118,39.0862637 35.260114,39.0862637 36.7518723,39.0862637 C37.9864877,39.0862637 37.9304437,37.8467033 37.9304437,37.8467033 L37.9304437,20.8868132 L22.4425316,7.10989011 L6.00022392,20.8868132 C6.00022392,20.8868132 6.00022392,38.1335165 6.00022392,38.1335165 Z" id="Path"></path>
                    <path d="M7.10542736e-15,19.9368132 C7.10542736e-15,19.9368132 1.39615385,22.5098901 4.44065934,19.9368132 L22.6351648,4.54450549 L39.693956,19.8412088 C43.2181319,22.382967 44.5384615,19.8412088 44.5384615,19.8412088 L22.6351648,-1.24344979e-14 L7.10542736e-15,19.9368132 Z" id="Path"></path>
                    <polygon id="Path" points="39.2802198 4.50824176 34.8923077 4.50824176 34.9104396 9.82912088 39.2802198 13.5362637"></polygon>
                </g>
                <text id="Home" font-family="SFProText-Regular, SF Pro Text" font-size="10" font-weight="normal" letter-spacing="1.166667">
                    <tspan x="28.2945957" y="53">Home</tspan>
                </text>
            </g>
        </g>
    </g>
</svg>