
<svg width="175px" height="140px" viewBox="0 0 194 155" version="1.1" xmlns="http://www.w3.org/2000/svg" xmlns:xlink="http://www.w3.org/1999/xlink">
    <g id="Home-Screen" stroke="none" stroke-width="1" fill="none" fill-rule="evenodd">
        <g id="Artboard" transform="translate(-94.000000, -68.000000)" fill="#FFFFFF" fill-rule="nonzero">
            <g id="code" transform="translate(191.004011, 145.326341) rotate(-15.000000) translate(-191.004011, -145.326341) translate(91.004011, 70.326341)">
                <path d="M124.574379,2.1082218 L117.803442,0.252007648 C116.931931,-0.038623327 116.073423,0.0527724665 115.238623,0.52543021 C114.401147,0.998470363 113.835564,1.70860421 113.544933,2.65468451 L72.8206501,143.606119 C72.5300191,144.552581 72.6210325,145.445124 73.0940727,146.281071 C73.5671128,147.118547 74.275717,147.6826 75.223327,147.973231 L81.9923518,149.83021 C82.8657744,150.123136 83.7212237,150.031358 84.5583174,149.557935 C85.3957935,149.0826 85.9602294,148.374761 86.250478,147.43021 C93.0300476,123.965618 98.1147248,106.367174 101.50451,94.6348777 C107.16482,75.044123 115.655287,45.6579911 126.975908,6.47648184 C127.266157,5.53040153 127.175908,4.63785851 126.702103,3.8 C126.228681,2.9625239 125.520841,2.39847036 124.574379,2.1082218 Z" id="Path"></path>
                <path d="M63.5437859,29.623327 C63.5437859,28.6772467 63.1793499,27.8393881 62.4516252,27.1120459 L56.9919694,21.6527725 C56.2642447,20.9250478 55.4267686,20.5602294 54.4806883,20.5602294 C53.534608,20.5602294 52.6967495,20.9254302 51.9694073,21.6527725 L1.09216061,72.5300191 C0.363288719,73.2577438 0,74.0952199 0,75.0413002 C0,75.9873805 0.364435946,76.8248566 1.09216061,77.5521989 L51.9690249,128.429446 C52.6963671,129.158317 53.532696,129.520841 54.4803059,129.520841 C55.4279159,129.520841 56.2642447,129.15717 56.991587,128.429446 L62.4512428,122.973231 C63.1789675,122.245889 63.5434034,121.408031 63.5434034,120.460803 C63.5434034,119.51587 63.1789675,118.678394 62.4512428,117.951052 L19.5437859,75.0413002 L62.4516252,32.134608 C63.1804971,31.4072658 63.5437859,30.5694073 63.5437859,29.623327 Z" id="Path"></path>
                <path d="M198.705163,72.5288719 L147.826769,21.6516252 C147.099426,20.924283 146.261568,20.5590822 145.317017,20.5590822 C144.369407,20.5590822 143.534608,20.924283 142.804589,21.6516252 L137.347228,27.1105163 C136.619885,27.8382409 136.256979,28.6745698 136.256979,29.6217973 C136.256979,30.5690249 136.619503,31.4057361 137.347228,32.1330784 L180.255832,75.0409178 L137.347228,117.951052 C136.619885,118.678394 136.256979,119.516252 136.256979,120.460803 C136.256979,121.408413 136.619503,122.245889 137.347228,122.973231 L142.804589,128.429446 C143.534608,129.158317 144.36979,129.520841 145.317017,129.520841 C146.26195,129.520841 147.099426,129.15717 147.826769,128.429446 L198.705163,77.5525813 C199.432887,76.825239 199.796558,75.9862333 199.796558,75.040153 C199.796558,74.0936902 199.432887,73.2562141 198.705163,72.5288719 Z" id="Path" stroke="#FFFFFF"></path>
            </g>
        </g>
    </g>
</svg>