
<svg width="26px" height="26px" viewBox="0 0 26 26" version="1.1" xmlns="http://www.w3.org/2000/svg" xmlns:xlink="http://www.w3.org/1999/xlink">
    <g id="Settings-Screen" stroke="none" stroke-width="1" fill="none" fill-rule="evenodd">
        <g id="Artboard" transform="translate(-45.000000, -264.000000)" fill="#000000" fill-rule="nonzero">
            <g id="notification" transform="translate(45.000000, 264.000000)">
                <path d="M25.7636364,4.72727273 C25.7636364,2.12065455 23.6429818,0 21.0363636,0 C18.9237455,0 17.1311636,1.3936 16.5270182,3.30909091 L2.71109091,3.30909091 C1.3468,3.30909091 0.236363636,4.41952727 0.236363636,5.78381818 L0.236363636,23.5248 C0.236363636,24.8895636 1.3468,26 2.71109091,26 L20.4520727,26 C21.8168364,26 22.9268,24.8895636 22.9268,23.5252727 L22.9268,9.05698182 C24.5945818,8.32567273 25.7636364,6.6612 25.7636364,4.72727273 Z M21.9818182,23.5252727 C21.9818182,24.3686182 21.2958909,25.0545455 20.4525455,25.0545455 L2.71109091,25.0545455 C1.86774545,25.0545455 1.18181818,24.3686182 1.18181818,23.5252727 L1.18181818,5.78381818 C1.18181818,4.94047273 1.86774545,4.25454545 2.71109091,4.25454545 L16.3327273,4.25454545 C16.3176,4.41007273 16.3090909,4.56749091 16.3090909,4.72727273 C16.3090909,7.33389091 18.4297455,9.45454545 21.0363636,9.45454545 C21.3601818,9.45454545 21.6764364,9.42145455 21.9818182,9.35905455 M22.2909818,8.29069091 C22.1655515,8.33166061 19.4493649,3.06237839 19.3860195,3.07971172 C19.3690013,3.08443899 21.9733091,8.38712727 21.9562909,8.39138182 C21.8726182,8.41265455 21.7884727,8.43109091 21.7038545,8.44669091 C21.6603636,8.45472727 22.848265,8.44007273 22.8043014,8.44669091 C22.7409559,8.45614545 21.0997091,0.939309091 21.0363636,0.945450779 C20.9224364,0.955381818 19.5023104,0.945450779 19.3860195,0.945450779 C17.3980264,0.945450779 16.718691,4.09785861 16.718691,4.00065163 C16.718691,3.89036889 17.1932071,3.89993754 17.2545455,3.63130223 C17.6379273,1.94933859 19.24,0.945450779 21.0363636,0.945450779" id="Shape"></path>
            </g>
        </g>
    </g>
</svg>