<svg xmlns="http://www.w3.org/2000/svg" xmlns:xlink="http://www.w3.org/1999/xlink" version="1.1" width="45.974" height="45.975" style="" xml:space="preserve"><rect id="backgroundrect" width="100%" height="100%" x="0" y="0" fill="none" stroke="none"/>
















<g class="currentLayer" style=""><title>Layer 1</title><g id="svg_1" class="" fill="#ffffff" fill-opacity="1">
	<g id="svg_2" fill="#ffffff" fill-opacity="1">
		<g id="svg_3" fill="#ffffff" fill-opacity="1">
			<path d="M9.629,45.34666668653488 c-1.154,1.1600000000000001 -2.895,1.51 -4.407,0.8850000000000001 c-1.513,-0.6230000000000001 -2.5,-2.1 -2.5,-3.7350000000000003 V4.709666686534882 c0,-1.637 0.987,-3.112 2.5,-3.736 c1.513,-0.6250000000000001 3.253,-0.275 4.407,0.8850000000000001 l17.862000000000002,17.951 c2.088,2.098 2.088,5.488 0,7.585 L9.629,45.34666668653488 z" id="svg_4" fill="#ffffff" fill-opacity="1"/>
		</g>
		<g id="svg_5" fill="#ffffff" fill-opacity="1">
			<g id="svg_6" fill="#ffffff" fill-opacity="1">
				<path d="M38.252,46.64166668653488 c-2.763,0 -5,-2.238 -5,-5 V5.666666686534882 c0,-2.762 2.237,-5 5,-5 c2.762,0 5,2.238 5,5 v35.975 C43.252,44.40266668653488 41.013,46.64166668653488 38.252,46.64166668653488 z" id="svg_7" fill="#ffffff" fill-opacity="1"/>
			</g>
		</g>
	</g>
</g><g id="svg_8">
</g><g id="svg_9">
</g><g id="svg_10">
</g><g id="svg_11">
</g><g id="svg_12">
</g><g id="svg_13">
</g><g id="svg_14">
</g><g id="svg_15">
</g><g id="svg_16">
</g><g id="svg_17">
</g><g id="svg_18">
</g><g id="svg_19">
</g><g id="svg_20">
</g><g id="svg_21">
</g><g id="svg_22">
</g></g></svg>