
<svg width="20px" height="18px" viewBox="0 0 20 18" version="1.1" xmlns="http://www.w3.org/2000/svg" xmlns:xlink="http://www.w3.org/1999/xlink">
    <g id="Home-Screen" stroke="none" stroke-width="1" fill="none" fill-rule="evenodd">
        <g id="Artboard" transform="translate(-110.000000, -144.000000)" fill="#000000" fill-rule="nonzero">
            <g id="running" transform="translate(110.000000, 144.000000)">
                <path d="M19.6267836,4.03274854 L19.5779337,3.98385965 C19.1188304,3.52475634 18.3706433,3.52374269 17.9087719,3.98522417 L16.1119298,5.80097466 C16.017271,5.89594542 15.865848,5.89976608 15.7670955,5.80888889 L13.2478752,3.48307992 C13.0031969,3.25695906 12.6848343,3.13270955 12.351345,3.13270955 L8.60382066,3.13270955 C8.51536062,3.13270955 8.43072125,3.16643275 8.36670565,3.22701754 L5.19048733,6.242846 C4.72518519,6.70849903 4.69317739,7.45910331 5.11961014,7.91614035 C5.34744639,8.16050682 5.65512671,8.29504873 5.98584795,8.29504873 L5.99169591,8.29504873 C6.31968811,8.29333333 6.63493177,8.15395712 6.85278752,7.91578947 L9.09598441,5.54179337 L9.89890838,5.54179337 L4.66393762,11.3925146 L1.43508772,11.3925146 C0.669668616,11.3925146 0.0402339181,11.9648343 0.00202729045,12.6954776 C-0.0182846004,13.077154 0.115243665,13.439883 0.37785575,13.7165692 C0.636647173,13.9894737 1.00042885,14.145731 1.37660819,14.145731 L6.19477583,14.145731 C6.28974659,14.145731 6.38062378,14.1065107 6.4460039,14.0366472 L8.91461988,11.4014425 L10.9905653,13.5723587 L10.3638596,17.5776218 C10.2058869,18.2411696 10.5242495,18.917076 11.1206628,19.1837817 C11.3044444,19.2663938 11.4995712,19.3076803 11.6936842,19.3076803 C11.9025731,19.3076803 12.1104483,19.2598441 12.3017934,19.1651852 C12.671423,18.9821053 12.937115,18.6472515 13.0338012,18.2307992 L14.1044834,12.4878752 C14.1251462,12.3763743 14.0896686,12.2614035 14.0091618,12.1812476 L11.1516569,9.32752437 L13.4217154,7.06093567 L15.0041326,8.64300195 C15.4460429,9.08491228 16.2162573,9.08491228 16.6578168,8.64300195 L19.6268616,5.67430799 C19.8460819,5.45508772 19.9669006,5.16323587 19.9669006,4.85348928 C19.9668226,4.54346979 19.8460039,4.25196881 19.6267836,4.03274854 Z" id="Path"></path>
                <path d="M15.8309942,4.16518519 C16.9698246,4.16518519 17.8959454,3.23906433 17.8959454,2.10023392 C17.8959454,0.961403509 16.9698246,0.0352826511 15.8309942,0.0352826511 C14.6922027,0.0352826511 13.7660429,0.961403509 13.7660429,2.10023392 C13.7660819,3.23906433 14.6922027,4.16518519 15.8309942,4.16518519 Z" id="Path"></path>
            </g>
        </g>
    </g>
</svg>