
<svg width="47px" height="52px" viewBox="0 0 47 52" version="1.1" xmlns="http://www.w3.org/2000/svg" xmlns:xlink="http://www.w3.org/1999/xlink">
    <g id="Connect-Screen" stroke="none" stroke-width="1" fill="none" fill-rule="evenodd">
        <g id="Artboard" transform="translate(-297.000000, -606.000000)" fill="#FFFFFF">
            <g id="SettingsIcon" transform="translate(277.000000, 606.000000)">
                <g transform="translate(28.000000, 0.000000)" fill-rule="nonzero">
                    <path d="M3.10763889,0 C2.77222222,0 2.5,0.271614583 2.5,0.607638889 L2.5,22.4826389 C2.5,22.8186632 2.77222222,23.0902778 3.10763889,23.0902778 C3.44305556,23.0902778 3.71527778,22.8186632 3.71527778,22.4826389 L3.71527778,0.607638889 C3.71527778,0.271614583 3.44305556,0 3.10763889,0 Z" id="Path"></path>
                    <path d="M3.10763889,29.1666667 C2.77222222,29.1666667 2.5,29.4382813 2.5,29.7743056 L2.5,32.2048611 C2.5,32.5408854 2.77222222,32.8125 3.10763889,32.8125 C3.44305556,32.8125 3.71527778,32.5408854 3.71527778,32.2048611 L3.71527778,29.7743056 C3.71527778,29.4382813 3.44305556,29.1666667 3.10763889,29.1666667 Z" id="Path"></path>
                    <path d="M14.6527778,0 C14.3173611,0 14.0451389,0.271614583 14.0451389,0.607638889 L14.0451389,12.7604167 C14.0451389,13.096441 14.3173611,13.3680556 14.6527778,13.3680556 C14.9881944,13.3680556 15.2604167,13.096441 15.2604167,12.7604167 L15.2604167,0.607638889 C15.2604167,0.271614583 14.9881944,0 14.6527778,0 Z" id="Path"></path>
                    <path d="M14.6527778,19.4444444 C14.3173611,19.4444444 14.0451389,19.716059 14.0451389,20.0520833 L14.0451389,32.2048611 C14.0451389,32.5408854 14.3173611,32.8125 14.6527778,32.8125 C14.9881944,32.8125 15.2604167,32.5408854 15.2604167,32.2048611 L15.2604167,20.0520833 C15.2604167,19.716059 14.9881944,19.4444444 14.6527778,19.4444444 Z" id="Path"></path>
                    <path d="M26.1979167,9.72222222 C25.8625,9.72222222 25.5902778,9.99383681 25.5902778,10.3298611 L25.5902778,32.2048611 C25.5902778,32.5408854 25.8625,32.8125 26.1979167,32.8125 C26.5333333,32.8125 26.8055556,32.5408854 26.8055556,32.2048611 L26.8055556,10.3298611 C26.8055556,9.99383681 26.5333333,9.72222222 26.1979167,9.72222222 Z" id="Path"></path>
                    <path d="M26.1979167,0 C25.8625,0 25.5902778,0.271614583 25.5902778,0.607638889 L25.5902778,3.03819444 C25.5902778,3.37421875 25.8625,3.64583333 26.1979167,3.64583333 C26.5333333,3.64583333 26.8055556,3.37421875 26.8055556,3.03819444 L26.8055556,0.607638889 C26.8055556,0.271614583 26.5333333,0 26.1979167,0 Z" id="Path"></path>
                    <rect id="Rectangle" x="0.0694444444" y="22.4826389" width="6.07638889" height="7.29166667"></rect>
                    <rect id="Rectangle" x="11.6145833" y="12.7604167" width="6.07638889" height="7.29166667"></rect>
                    <rect id="Rectangle" x="23.1597222" y="3.03819444" width="6.07638889" height="7.29166667"></rect>
                </g>
                <text id="Settings" font-family="SFProText-Regular, SF Pro Text" font-size="10" font-weight="normal" letter-spacing="1.166667">
                    <tspan x="20.3460273" y="48">Settings</tspan>
                </text>
            </g>
        </g>
    </g>
</svg>