<svg xmlns="http://www.w3.org/2000/svg" xmlns:xlink="http://www.w3.org/1999/xlink" version="1.1" width="522.468" height="522.469" style="enable-background:new 0 0 522.468 522.469;" xml:space="preserve"><rect id="backgroundrect" width="100%" height="100%" x="0" y="0" fill="none" stroke="none"/>
















<g class="currentLayer" style=""><title>Layer 1</title><g id="svg_1" class="selected" fill="#b6b6b6" fill-opacity="1">
	<g id="svg_2" fill="#b6b6b6" fill-opacity="1">
		<path d="M325.762,104.05439716628119 l-17.706,-4.433009670495987 c-2.279,-0.6940847444534303 -4.524,-0.4758133577108383 -6.707,0.6529876214265824 c-2.19,1.1297142485380174 -3.669,2.825655525445938 -4.429,5.085084022521972 L190.426,441.9796009668402 c-0.7600000000000001,2.2603417664766314 -0.522,4.391912547469139 0.7150000000000001,6.388319457173347 c1.237,2.000059987306595 3.09,3.3471323531866073 5.568,4.041217097640037 l17.701,4.43483620929718 c2.284,0.69956436085701 4.521,0.4803797047138214 6.71,-0.6502478132247925 c2.19,-1.1351938649415971 3.6660000000000004,-2.825655525445938 4.425,-5.081430944919586 L332.042,114.48667352929637 c0.7590000000000001,-2.2594284970760348 0.523,-4.390999278068542 -0.7160000000000001,-6.391972534775734 C330.088,106.09464100721402 328.237,104.74756864133403 325.762,104.05439716628119 z" id="svg_3" fill="#b6b6b6" fill-opacity="1"/>
		<path d="M166.167,169.76595707800908 c0,-2.2594284970760348 -0.9530000000000001,-4.260401753783226 -2.856,-5.997440153717995 l-14.277,-13.037833962917327 c-1.903,-1.7379516693353654 -4.093,-2.6092106775045396 -6.567,-2.6092106775045396 s-4.665,0.8721722775697709 -6.567,2.6092106775045396 L2.856,272.23569709435026 C0.9500000000000001,273.9736487636857 0,275.9737087509923 0,278.23313724806826 c0,2.2594284970760348 0.9530000000000001,4.259488484382629 2.856,5.996526884317398 l133.043,121.50501413297654 c1.9020000000000001,1.7406914775371554 4.089,2.6064708693027496 6.567,2.6064708693027496 s4.665,-0.8685191999673844 6.567,-2.6064708693027496 l14.277,-13.030527807712556 c1.903,-1.7370383999347687 2.856,-3.73801165664196 2.856,-6.000179961919785 c0,-2.256688688874245 -0.9530000000000001,-4.25674867618084 -2.856,-5.993787076115608 L51.107,278.23313724806826 l112.204,-102.4697400163412 C165.217,174.02635883179232 166.167,172.02538557508512 166.167,169.76595707800908 z" id="svg_4" fill="#b6b6b6" fill-opacity="1"/>
		<path d="M519.614,272.2329572861485 L386.567,150.72794315317196 c-1.9020000000000001,-1.7370383999347687 -4.093,-2.6092106775045396 -6.563,-2.6092106775045396 c-2.478,0 -4.6610000000000005,0.8721722775697709 -6.57,2.6092106775045396 l-14.271,13.036920693516732 c-1.9020000000000001,1.7379516693353654 -2.851,3.73527184844017 -2.851,5.997440153717995 s0.9480000000000001,4.260401753783226 2.851,5.997440153717995 l112.206,102.47247982454299 L359.163,380.7101834196143 c-1.9020000000000001,1.7370383999347687 -2.851,3.73801165664196 -2.851,5.993787076115608 c0,2.2630815746784214 0.9480000000000001,4.263141561985016 2.851,6.000179961919785 l14.271,13.030527807712556 c1.909,1.7406914775371554 4.093,2.6064708693027496 6.57,2.6064708693027496 c2.471,0 4.6610000000000005,-0.8685191999673844 6.563,-2.6064708693027496 L519.614,284.23057740178626 c1.903,-1.7370383999347687 2.854,-3.74075146484375 2.854,-6.000179961919785 C522.468,275.9700556733899 521.517,273.9699956860833 519.614,272.2329572861485 z" id="svg_5" fill="#b6b6b6" fill-opacity="1"/>
	</g>
</g><g id="svg_6">
</g><g id="svg_7">
</g><g id="svg_8">
</g><g id="svg_9">
</g><g id="svg_10">
</g><g id="svg_11">
</g><g id="svg_12">
</g><g id="svg_13">
</g><g id="svg_14">
</g><g id="svg_15">
</g><g id="svg_16">
</g><g id="svg_17">
</g><g id="svg_18">
</g><g id="svg_19">
</g><g id="svg_20">
</g></g></svg>