
<svg width="20px" height="19px" viewBox="0 0 20 19" version="1.1" xmlns="http://www.w3.org/2000/svg" xmlns:xlink="http://www.w3.org/1999/xlink">
    <g id="Home-Screen" stroke="none" stroke-width="1" fill="none" fill-rule="evenodd">
        <g id="Artboard" transform="translate(-120.000000, -202.000000)" fill="#000000" fill-rule="nonzero">
            <g id="weight-lifting" transform="translate(120.000000, 202.000000)">
                <path d="M19.6665955,3.33328246 L18.999939,3.33328246 L18.999939,1.66671754 C18.999939,1.29852297 18.701477,1.00006102 18.3332825,1.00006102 C17.9650879,1.00006102 17.666626,1.29852297 17.666626,1.66671754 L17.666626,0.666656484 C17.666626,0.298461914 17.3681641,0 16.9999695,0 C16.6317749,0 16.333313,0.298461914 16.333313,0.666656484 L16.333313,3.33328246 L11.9389343,3.33328246 C11.889801,3.19244383 11.8103027,3.06411742 11.7060852,2.9573059 C11.4634705,2.7157593 11.1138916,2.61535645 10.7800293,2.69180297 C10.4463196,2.76809691 10.1748657,3.01025391 10.0614929,3.33328246 L3.66668703,3.33328246 L3.66668703,0.666656484 C3.66668703,0.298461914 3.36822508,0 3.00003051,0 C2.63183594,0 2.33337402,0.298461914 2.33337402,0.666656484 L2.33337402,1.66671754 C2.33337402,1.29852297 2.03491211,1.00006102 1.66671754,1.00006102 C1.29852297,1.00006102 1.00006102,1.29852297 1.00006102,1.66671754 L1.00006102,3.33328246 L0.333404531,3.33328246 C0.149230937,3.33328246 -5.68434189e-14,3.48251344 -5.68434189e-14,3.66668703 C-5.68434189e-14,3.85070801 0.149230937,3.99993898 0.333404531,3.99993898 L1.00006102,3.99993898 L1.00006102,5.66665648 C1.00006102,6.03485109 1.29852297,6.33331297 1.66671754,6.33331297 C2.03491211,6.33331297 2.33337402,6.03485109 2.33337402,5.66665648 L2.33337402,6.66671754 C2.33337402,7.03491211 2.63183594,7.33337402 3.00003051,7.33337402 C3.36822508,7.33337402 3.66668703,7.03491211 3.66668703,6.66671754 L3.66668703,3.99993898 L10,3.99993898 L10,6.83624266 C10.2191162,7.2454834 10.3337097,7.70248414 10.3334045,8.16665648 C10.3334045,8.23577883 10.3292847,8.30474852 10.3208923,8.37326051 C10.2716064,9.13619996 9.91027832,9.84512328 9.32189941,10.3334045 L9.66659547,10.3334045 C9.85076906,10.3334045 10,10.4826355 10,10.6666565 C10,10.8508301 9.85076906,11.000061 9.66659547,11.000061 L5.33340453,11.000061 C5.06073,10.9989929 4.79461672,11.0826111 4.5715332,11.2393188 C4.03167727,11.6368103 3.44680785,11.9692993 2.82913207,12.230072 L2.29125977,12.4404907 C1.77886961,12.6443481 1.52786254,13.2244873 1.73004148,13.7376404 C1.82647703,13.9845276 2.01721191,14.1828918 2.26013184,14.2889404 C2.50305176,14.394989 2.77816773,14.400177 3.02490234,14.3031311 L3.54537965,14.0997314 C3.64059449,14.0625 3.74771117,14.0710449 3.83575437,14.1229248 C3.9239502,14.1746521 3.98345945,14.2640686 3.99719238,14.365387 L4.58724977,18.7120056 C4.60968016,18.8768005 4.75036621,18.9997864 4.91668703,18.999939 L11.0699463,18.999939 C11.2400818,19.0007019 11.3832092,18.8729859 11.4019775,18.7039184 L11.9999695,13.314209 L11.9999695,3.99993898 L16.333313,3.99993898 L16.333313,6.66671754 C16.333313,7.03491211 16.6317749,7.33337402 16.9999695,7.33337402 C17.3681641,7.33337402 17.666626,7.03491211 17.666626,6.66671754 L17.666626,5.66665648 C17.666626,6.03485109 17.9650879,6.33331297 18.3332825,6.33331297 C18.701477,6.33331297 18.999939,6.03485109 18.999939,5.66665648 L18.999939,3.99993898 L19.6665955,3.99993898 C19.8507691,3.99993898 20,3.85070801 20,3.66668703 C20,3.48251344 19.8507691,3.33328246 19.6665955,3.33328246 L19.6665955,3.33328246 Z" id="Path"></path>
                <path d="M6.19857789,9.89227297 C6.53121949,10.1492309 6.93374633,10.2996826 7.35336305,10.3239441 C7.40203859,10.329895 7.4510193,10.3330994 7.5,10.3334045 C8.63937379,10.3343201 9.58358766,9.45007324 9.65728758,8.31298828 C9.66323852,8.26446531 9.66629027,8.21563719 9.66659547,8.16665648 C9.6697998,7.1472168 8.96179199,6.26342773 7.96615602,6.04400633 C6.97052,5.82473754 5.95657348,6.32919312 5.53115844,7.2557068 C5.10559082,8.18206789 5.38345336,9.27993773 6.19857789,9.89227297 L6.19857789,9.89227297 Z" id="Path"></path>
            </g>
        </g>
    </g>
</svg>