
<svg width="20px" height="18px" viewBox="0 0 20 18" version="1.1" xmlns="http://www.w3.org/2000/svg" xmlns:xlink="http://www.w3.org/1999/xlink">
    <g id="Home-Screen" stroke="none" stroke-width="1" fill="none" fill-rule="evenodd">
        <g id="Artboard" transform="translate(-142.000000, -119.000000)" fill="#000000" fill-rule="nonzero">
            <g id="bike" transform="translate(142.000000, 119.000000)">
                <path d="M12.9166797,3.34636719 C13.8333594,3.34636719 14.5833594,2.59636719 14.5833594,1.6796875 C14.5833594,0.763007813 13.8333594,0.0130078125 12.9166797,0.0130078125 C12,0.0130078125 11.25,0.763007813 11.25,1.6796875 C11.25,2.59636719 12,3.34636719 12.9166797,3.34636719 Z" id="Path"></path>
                <path d="M4.16667969,8.76300781 C1.875,8.76300781 0,10.6380078 0,12.9296875 C0,15.2213672 1.875,17.0963672 4.16667969,17.0963672 C6.45835938,17.0963672 8.33335938,15.2213672 8.33335938,12.9296875 C8.33335938,10.6380078 6.45832031,8.76300781 4.16667969,8.76300781 Z M4.16667969,15.8463672 C2.54167969,15.8463672 1.25,14.5546875 1.25,12.9296875 C1.25,11.3046875 2.54167969,10.0130078 4.16667969,10.0130078 C5.79167969,10.0130078 7.08335938,11.3046875 7.08335938,12.9296875 C7.08335938,14.5546875 5.79167969,15.8463672 4.16667969,15.8463672 Z" id="Shape"></path>
                <path d="M15.7916797,7.88800781 L15.7916797,6.22132813 C14.5416797,6.22132813 13.5,5.76300781 12.75,5.01300781 L11.125,3.4296875 C10.875,3.13800781 10.4583203,2.9296875 10,2.9296875 C9.54167969,2.9296875 9.125,3.09636719 8.83332031,3.4296875 L6.54164063,5.72136719 C6.24996094,6.01304688 6.04164063,6.4296875 6.04164063,6.88804688 C6.04164063,7.34640625 6.24996094,7.76304688 6.54164063,8.09636719 L9.16664062,10.4296875 L9.16664062,14.5963672 L10.8333203,14.5963672 L10.8333203,9.38800781 L9,7.5546875 L10.9583203,5.5546875 L11.5833203,6.1796875 C12.625,7.26300781 14.0833203,7.88800781 15.7916797,7.88800781 Z" id="Path"></path>
                <path d="M15.8333203,8.76300781 C13.5416406,8.76300781 11.6666406,10.6380078 11.6666406,12.9296875 C11.6666406,15.2213672 13.5416406,17.0963672 15.8333203,17.0963672 C18.125,17.0963672 20,15.2213672 20,12.9296875 C20,10.6380078 18.125,8.76300781 15.8333203,8.76300781 Z M15.8333203,15.8463672 C14.2083203,15.8463672 12.9166406,14.5546875 12.9166406,12.9296875 C12.9166406,11.3046875 14.2083203,10.0130078 15.8333203,10.0130078 C17.4583203,10.0130078 18.75,11.3046875 18.75,12.9296875 C18.75,14.5546875 17.4583203,15.8463672 15.8333203,15.8463672 Z" id="Shape"></path>
            </g>
        </g>
    </g>
</svg>