<svg xmlns="http://www.w3.org/2000/svg" height="512" width="512" style=""><rect id="backgroundrect" width="100%" height="100%" x="0" y="0" fill="none" stroke="none"/><g class="currentLayer" style=""><title>Layer 1</title><path d="m134.46321507795145,426.1861997052686 c-1.0648786492266655,0 -2.1601820021488667,-0.11741700898581799 -3.2402730032233,-0.37136487103998744 c-6.6296272103312015,-1.6110678410212396 -10.584889318105818,-7.754972307011485 -8.789809212480069,-13.721385685357214 l83.07875970859016,-276.4838769385618 c1.7950801056257486,-5.9500299835550186 8.640726450830698,-9.499841250849007 15.28860910648513,-7.888772710788012 c6.629627989213585,1.6110678410212396 10.5848900969882,7.754972307011485 8.789809212480069,13.721385685357214 l-83.08180202318323,276.4838769385618 c-1.512126934174776,4.980658270418644 -6.547480043023825,8.260137581828 -12.045293788668753,8.260137581828 zm0,0 " id="svg_1" class="" fill="#dadada" fill-opacity="1" stroke="#dadada" stroke-opacity="1" stroke-width="20" transform="rotate(-5.770336627960205 176.01170349120946,276.75924682617205) "/><path d="m275.33203350339505,396.037756904567 c-4.179687,0 -8.382812,-1.2459096126258389 -11.519531,-3.711030964602709 c-6.121094,-4.844215042094707 -5.9296880000000005,-12.521391417036773 0.425781,-17.187620131025074 l126.699219,-92.73423885847163 l-126.699219,-92.73127259686589 c-6.355469,-4.651395887136459 -6.546875,-12.346370591124536 -0.425781,-17.190585633219243 c6.144531,-4.811584645608425 16.277344,-4.971773404080391 22.636719,-0.3233437785496719 l138.664062,101.48230477953886 c3.117188,2.3167983993394374 4.886719,5.458270683884621 4.886719,8.762897229095936 c0,3.3046273046228882 -1.7695310000000002,6.4490658507738114 -4.886719,8.748065161655665 l-138.664062,101.48230477953886 c-3.117188,2.2841680028531552 -7.105469,3.4025200129048825 -11.117188,3.4025200129048825 zm0,0 " id="svg_3" class="" fill="#dadada" fill-opacity="1" stroke="#dadada" stroke-opacity="1" stroke-width="20"/></g></svg>