
<svg width="32px" height="31px" viewBox="0 0 32 31" version="1.1" xmlns="http://www.w3.org/2000/svg" xmlns:xlink="http://www.w3.org/1999/xlink">
    <g id="Connect-Screen" stroke="none" stroke-width="1" fill="none" fill-rule="evenodd">
        <g id="Artboard" transform="translate(-28.000000, -142.000000)" stroke="#2E8B57">
            <g id="Group-3" transform="translate(29.000000, 143.000000)">
                <g id="link" transform="translate(5.882353, 5.882353)" fill="#2E8B57" fill-rule="nonzero" stroke-width="0.6">
                    <path d="M9.85244194,7.46268427 C9.64782618,7.66730004 9.64782618,7.99545739 9.85244194,8.20007315 C10.6979297,9.04556092 10.6979297,10.4199611 9.85244194,11.2654489 L5.41266599,15.7052248 C4.56717822,16.5507126 3.19277801,16.5507126 2.34729024,15.7052248 L1.67939351,15.0373281 C0.833905744,14.1918403 0.833905744,12.8174401 1.67939351,11.9719524 L6.11916946,7.53217642 C6.32378523,7.32756066 6.32378523,6.99940331 6.11916946,6.79478754 C5.9145537,6.59017178 5.58639635,6.59017178 5.38178059,6.79478754 L0.942004637,11.2345635 C0.335878702,11.8406894 0,12.6475705 0,13.5046402 C0,14.36171 0.332018028,15.1685911 0.942004637,15.774717 L1.60990137,16.4426137 C2.23533068,17.068043 3.0576544,17.3807577 3.87997811,17.3807577 C4.70230183,17.3807577 5.52462555,17.068043 6.15005486,16.4426137 L10.5898308,12.0028378 C11.8406894,10.7519792 11.8406894,8.71354289 10.5898308,7.46268427 C10.3890757,7.25806851 10.0570577,7.25806851 9.85244194,7.46268427 Z" id="Path"></path>
                    <path d="M17.7011937,1.62920474 L17.033297,0.961308011 C15.7824383,-0.289550606 13.7440021,-0.289550606 12.4931435,0.961308011 L8.05336751,5.40108396 C6.80250889,6.65194258 6.80250889,8.69037884 8.05336751,9.94123746 C8.25798327,10.1458532 8.58614062,10.1458532 8.79075639,9.94123746 C8.99537215,9.7366217 8.99537215,9.40846434 8.79075639,9.20384858 C7.94526862,8.35836081 7.94526862,6.98396061 8.79075639,6.13847284 L13.2305323,1.69869689 C14.0760201,0.853209118 15.4504203,0.853209118 16.2959081,1.69869689 L16.9638048,2.36659362 C17.8092926,3.21208138 17.8092926,4.58648159 16.9638048,5.43196936 L12.5240289,9.87174531 C12.3194131,10.0763611 12.3194131,10.4045184 12.5240289,10.6091342 C12.6244064,10.7095117 12.75953,10.7635612 12.890793,10.7635612 C13.0220559,10.7635612 13.1571795,10.7133724 13.2575571,10.6091342 L17.697333,6.16935824 C18.3034589,5.5632323 18.6393377,4.75635128 18.6393377,3.89928149 C18.6393377,3.0422117 18.3073196,2.23533068 17.7011937,1.62920474 Z" id="Path"></path>
                </g>
                <ellipse id="Oval" stroke-width="1.2" fill-opacity="0" fill="#000000" cx="15" cy="14.4117647" rx="15" ry="14.4117647"></ellipse>
            </g>
        </g>
    </g>
</svg>