<svg width="216px" height="123px" viewBox="0 0 216 123" version="1.1" xmlns="http://www.w3.org/2000/svg" xmlns:xlink="http://www.w3.org/1999/xlink">
    <g id="Home-Screen" stroke="none" stroke-width="1" fill="none" fill-rule="evenodd">
        <g id="Artboard" transform="translate(-73.000000, -192.000000)">
            <g id="Group-3" transform="translate(73.000000, 182.957460)">
                <path d="M46,100 C42.1340068,100 39,96.8659932 39,93 C39,89.1340068 42.1340068,86 46,86 L7,86 C3.13400675,86 0,82.8659932 0,79 C0,75.1340068 3.13400675,72 7,72 L47,72 C50.8659932,72 54,68.8659932 54,65 C54,61.1340068 50.8659932,58 47,58 L22,58 C18.1340068,58 15,54.8659932 15,51 C15,47.1340068 18.1340068,44 22,44 L62,44 C58.1340068,44 55,40.8659932 55,37 C55,33.1340068 58.1340068,30 62,30 L119,30 C122.865993,30 126,33.1340068 126,37 C126,40.8659932 122.865993,44 119,44 L183,44 C186.865993,44 190,47.1340068 190,51 C190,54.8659932 186.865993,58 183,58 L205,58 C208.865993,58 212,61.1340068 212,65 C212,68.8659932 208.865993,72 205,72 L186,72 C182.134007,72 179,75.1340068 179,79 C179,82.8659932 182.134007,86 186,86 L192,86 C195.865993,86 199,89.1340068 199,93 C199,96.8659932 195.865993,100 192,100 L46,100 Z M209,100 C205.134007,100 202,96.8659932 202,93 C202,89.1340068 205.134007,86 209,86 C212.865993,86 216,89.1340068 216,93 C216,96.8659932 212.865993,100 209,100 Z" id="BG" fill-opacity="0.313237544" fill="#2E8B57"></path>
                <path d="M104.498238,115.602814 C108.041754,116.306889 111.679232,116.428661 114.311293,116.232849 M118.624444,115.848768 L118.624444,115.848768 C120.906805,115.577776 123.140098,115.146086 125.312775,114.565285 C130.091331,113.287881 134.576674,111.289184 138.645955,108.692475 C142.761453,106.066273 146.451384,102.828398 149.588663,99.1063796 C152.32624,95.8585612 154.643015,92.242104 156.454551,88.3417402 C158.251784,84.4721737 159.551725,80.3231663 160.271922,75.977459 C160.701077,73.3879188 160.924377,70.7285347 160.924377,68.0168134 C160.924377,64.0355356 160.443046,60.1670723 159.535594,56.4668272 C158.560567,52.4910348 157.093592,48.7094469 155.203154,45.1907892 C152.835638,40.7841464 149.803956,36.7898878 146.242631,33.3430064 C143.471706,30.661125 140.380146,28.3106135 137.031315,26.3550563 C133.261201,24.1534902 129.165014,22.4524992 124.833165,21.3428099 C121.025206,20.3673252 117.035138,19.8487679 112.924377,19.8487679 C107.758433,19.8487679 102.783096,20.667707 98.1202516,22.183272 C93.5551198,23.6670775 89.289521,25.8186182 85.4378388,28.5231104 C81.4695921,31.3094494 77.9406938,34.6827145 74.9762299,38.517382 C71.1339305,43.4875691 68.2398386,49.232878 66.566314,55.4799956 C65.495474,59.4773449 64.9243769,63.6801523 64.9243769,68.0168134 C64.9243769,74.9013202 66.3636548,81.4484887 68.9567327,87.3718419 C72.110149,94.5751727 76.9698915,100.855959 83.0225442,105.698986 C88.1024278,109.763653 94.022591,112.815571 100.47951,114.550153" id="Shape" stroke="#75A4FE" stroke-width="2.5" fill="#2E8B57" stroke-linecap="round" transform="translate(112.924377, 68.082804) rotate(-44.000000) translate(-112.924377, -68.082804) "></path>
                <g id="bling" transform="translate(149.000000, 11.000000)" stroke="#BDDBCA" stroke-linecap="round" stroke-linejoin="round" stroke-width="2.5">
                    <path d="M10.5,0 L10.5,6" id="Line"></path>
                    <path d="M10.5,14 L10.5,20" id="Line"></path>
                    <path d="M3.5,7 L3.5,13" id="Line" transform="translate(3.500000, 10.000000) rotate(-90.000000) translate(-3.500000, -10.000000) "></path>
                    <path d="M17.5,7 L17.5,13" id="Line" transform="translate(17.500000, 10.000000) rotate(-90.000000) translate(-17.500000, -10.000000) "></path>
                </g>
                <g id="bling" transform="translate(68.000000, 114.000000)" stroke="#BDDBCA" stroke-linecap="round" stroke-linejoin="round" stroke-width="2.5">
                    <path d="M8.5,0 L8.5,4" id="Line"></path>
                    <path d="M8.5,12 L8.5,16" id="Line"></path>
                    <path d="M2.5,6 L2.5,10" id="Line" transform="translate(2.500000, 8.000000) rotate(-90.000000) translate(-2.500000, -8.000000) "></path>
                    <path d="M14.5,6 L14.5,10" id="Line" transform="translate(14.500000, 8.000000) rotate(-90.000000) translate(-14.500000, -8.000000) "></path>
                </g>
                <path d="M101.526447,40.4152014 C99.5285363,39.5491455 97.4503157,38.8342909 95.3061064,38.285009 C91.9741415,37.4314599 88.4828321,36.9777222 84.8859164,36.9777222 C83.4114764,36.9777222 81.9547817,37.053965 80.5195338,37.202736 M75.781319,37.9707019 C74.4744022,38.2605598 73.1903559,38.6115095 71.9323067,39.0204134 C71.003155,39.3224157 70.0881841,39.6560308 69.1886538,40.0199947" id="Shape" stroke="#A4C3FE" stroke-width="2.5" fill="#FFFFFF" stroke-linecap="round" transform="translate(85.357550, 38.696462) rotate(-44.000000) translate(-85.357550, -38.696462) "></path>
                <g id="stopwatch-(1)" transform="translate(80.000000, 36.042540)" fill-rule="nonzero">
                    <g id="Group">
                        <circle id="Oval" fill="#ECF0F1" cx="31.9491525" cy="32.1639831" r="31.9491525"></circle>
                        <path d="M31.9491525,4.62161017 C47.1360169,4.62161017 59.4915254,16.9771186 59.4915254,32.1639831 C59.4915254,47.3508475 47.1360169,59.7063559 31.9491525,59.7063559 C16.7622881,59.7063559 4.40677966,47.3508475 4.40677966,32.1639831 C4.40677966,16.9771186 16.7622881,4.62161017 31.9491525,4.62161017 L31.9491525,4.62161017 Z M31.9491525,0.214830508 C14.3044068,0.214830508 0,14.5192373 0,32.1639831 C0,49.8087288 14.3044068,64.1131356 31.9491525,64.1131356 C49.5938983,64.1131356 63.8983051,49.8087288 63.8983051,32.1639831 C63.8983051,14.5192373 49.5938983,0.214830508 31.9491525,0.214830508 L31.9491525,0.214830508 Z" id="Shape" fill="#545E73"></path>
                        <g transform="translate(6.610169, 6.610169)" fill="#8697CB" id="Path">
                            <path d="M25.3389831,0.0804237288 C24.7308475,0.0804237288 24.2372881,0.572881356 24.2372881,1.18211864 L24.2372881,2.28381356 C24.2372881,2.89305085 24.7308475,3.38550847 25.3389831,3.38550847 C25.9471186,3.38550847 26.440678,2.89305085 26.440678,2.28381356 L26.440678,1.18211864 C26.440678,0.573983051 25.9471186,0.0804237288 25.3389831,0.0804237288 Z"></path>
                            <path d="M25.3389831,47.4533051 C24.7308475,47.4533051 24.2372881,47.9457627 24.2372881,48.555 L24.2372881,49.6566949 C24.2372881,50.2659322 24.7308475,50.7583898 25.3389831,50.7583898 C25.9471186,50.7583898 26.440678,50.2659322 26.440678,49.6566949 L26.440678,48.555 C26.440678,47.9468644 25.9471186,47.4533051 25.3389831,47.4533051 Z"></path>
                            <path d="M49.5762712,24.3177119 L48.4745763,24.3177119 C47.8664407,24.3177119 47.3728814,24.8101695 47.3728814,25.4194068 C47.3728814,26.0286441 47.8664407,26.5211017 48.4745763,26.5211017 L49.5762712,26.5211017 C50.1844068,26.5211017 50.6779661,26.0286441 50.6779661,25.4194068 C50.6779661,24.8101695 50.1844068,24.3177119 49.5762712,24.3177119 Z"></path>
                            <path d="M2.20338983,24.3177119 L1.10169492,24.3177119 C0.493559322,24.3177119 0,24.8101695 0,25.4194068 C0,26.0286441 0.493559322,26.5211017 1.10169492,26.5211017 L2.20338983,26.5211017 C2.81152542,26.5211017 3.30508475,26.0286441 3.30508475,25.4194068 C3.30508475,24.8101695 2.81152542,24.3177119 2.20338983,24.3177119 Z"></path>
                            <path d="M41.6980508,7.50254237 L40.9191525,8.28144068 C40.4883898,8.71220339 40.4883898,9.40847458 40.9191525,9.83923729 C41.1339831,10.0540678 41.4160169,10.1620339 41.6980508,10.1620339 C41.9800847,10.1620339 42.2621186,10.0540678 42.4769492,9.83923729 L43.2558475,9.06033898 C43.6866102,8.62957627 43.6866102,7.93330508 43.2558475,7.50254237 C42.8250847,7.07177966 42.1288136,7.07177966 41.6980508,7.50254237 Z"></path>
                            <path d="M8.20101695,41.000678 L7.42211864,41.7795763 C6.99135593,42.210339 6.99135593,42.9066102 7.42211864,43.3373729 C7.63694915,43.5522034 7.91898305,43.6601695 8.20101695,43.6601695 C8.48305085,43.6601695 8.76508475,43.5522034 8.97991525,43.3373729 L9.75881356,42.5584746 C10.1895763,42.1277119 10.1895763,41.4314407 9.75881356,41.000678 C9.32805085,40.5699153 8.63067797,40.5699153 8.20101695,41.000678 Z"></path>
                            <path d="M42.4769492,41.000678 C42.0461864,40.5699153 41.3499153,40.5699153 40.9191525,41.000678 C40.4883898,41.4314407 40.4883898,42.1277119 40.9191525,42.5584746 L41.6980508,43.3373729 C41.9128814,43.5522034 42.1949153,43.6601695 42.4769492,43.6601695 C42.7589831,43.6601695 43.0410169,43.5522034 43.2558475,43.3373729 C43.6866102,42.9066102 43.6866102,42.210339 43.2558475,41.7795763 L42.4769492,41.000678 Z"></path>
                            <path d="M8.97991525,7.50254237 C8.54915254,7.07177966 7.85288136,7.07177966 7.42211864,7.50254237 C6.99135593,7.93330508 6.99135593,8.62957627 7.42211864,9.06033898 L8.20101695,9.83923729 C8.41584746,10.0540678 8.69788136,10.1620339 8.97991525,10.1620339 C9.26194915,10.1620339 9.54398305,10.0540678 9.75881356,9.83923729 C10.1895763,9.40847458 10.1895763,8.71220339 9.75881356,8.28144068 L8.97991525,7.50254237 Z"></path>
                        </g>
                        <path d="M28.6440678,33.1323729 L19.8305085,33.1323729 C19.2223729,33.1323729 18.7288136,32.6399153 18.7288136,32.030678 C18.7288136,31.4214407 19.2223729,30.9289831 19.8305085,30.9289831 L28.6440678,30.9289831 C29.2522034,30.9289831 29.7457627,31.4214407 29.7457627,32.030678 C29.7457627,32.6399153 29.2522034,33.1323729 28.6440678,33.1323729 Z" id="Path" fill="#545E73"></path>
                        <path d="M31.9491525,29.8272881 C31.3410169,29.8272881 30.8474576,29.3348305 30.8474576,28.7255932 L30.8474576,16.6069492 C30.8474576,15.9977119 31.3410169,15.5052542 31.9491525,15.5052542 C32.5572881,15.5052542 33.0508475,15.9977119 33.0508475,16.6069492 L33.0508475,28.7255932 C33.0508475,29.3337288 32.5572881,29.8272881 31.9491525,29.8272881 Z" id="Path" fill="#545E73"></path>
                        <path d="M31.9491525,36.4374576 C29.5188136,36.4374576 27.5423729,34.4610169 27.5423729,32.030678 C27.5423729,29.600339 29.5188136,27.6238983 31.9491525,27.6238983 C34.3794915,27.6238983 36.3559322,29.600339 36.3559322,32.030678 C36.3559322,34.4610169 34.3794915,36.4374576 31.9491525,36.4374576 Z M31.9491525,29.8272881 C30.7339831,29.8272881 29.7457627,30.8155085 29.7457627,32.030678 C29.7457627,33.2458475 30.7339831,34.2340678 31.9491525,34.2340678 C33.164322,34.2340678 34.1525424,33.2458475 34.1525424,32.030678 C34.1525424,30.8155085 33.164322,29.8272881 31.9491525,29.8272881 Z" id="Shape" fill="#545E73"></path>
                    </g>
                    <g id="Group" transform="translate(37.457627, 37.457627)">
                        <circle id="Oval" fill="#ED7161" cx="13.65" cy="13.4351695" r="13.220339"></circle>
                        <path d="M15.2077966,13.4351695 L19.1033898,9.53957627 C19.5341525,9.10881356 19.5341525,8.41254237 19.1033898,7.98177966 C18.6726271,7.55101695 17.9763559,7.55101695 17.5455932,7.98177966 L13.65,11.8773729 L9.75440678,7.98177966 C9.32364407,7.55101695 8.62737288,7.55101695 8.19661017,7.98177966 C7.76584746,8.41254237 7.76584746,9.10881356 8.19661017,9.53957627 L12.0922034,13.4351695 L8.19661017,17.329661 C7.76584746,17.7604237 7.76584746,18.4566949 8.19661017,18.8874576 C8.41144068,19.1022881 8.69347458,19.2102542 8.97550847,19.2102542 C9.25754237,19.2102542 9.53957627,19.1022881 9.75440678,18.8874576 L13.65,14.9918644 L17.5455932,18.8874576 C17.7604237,19.1022881 18.0424576,19.2102542 18.3244915,19.2102542 C18.6065254,19.2102542 18.8885593,19.1022881 19.1033898,18.8874576 C19.5341525,18.4566949 19.5341525,17.7604237 19.1033898,17.329661 L15.2077966,13.4351695 Z" id="Path" fill="#FFFFFF"></path>
                    </g>
                </g>
            </g>
        </g>
    </g>
</svg>