<svg height="456" width="456.00567626953125" xmlns="http://www.w3.org/2000/svg" style=""><rect id="backgroundrect" width="100%" height="100%" x="0" y="0" fill="none" stroke="none"/><g class="currentLayer" style=""><title>Layer 1</title><path d="m245.75945723056793,325.3739848136902 c-0.6953120231628418,-3.988281011581421 -1.0468740463256836,-8.03125 -1.050781011581421,-12.08203125 c0.003907000180333853,-2.980468988418579 0.1992190033197403,-5.960937023162842 0.5742189884185791,-8.91796875 h-33.2421875 c0.3789069950580597,2.9570319652557373 0.5703129768371582,5.9375 0.5781260132789612,8.91796875 c-0.007813000120222569,4.050780773162842 -0.3593760132789612,8.09375 -1.058593988418579,12.08203125 zm0,0 " id="svg_1" class="" fill="#919191" fill-opacity="1"/><path d="m330.16961348056793,284.8505473136902 c-22.26171875,0 -36.0859375,10.898436546325684 -36.0859375,28.44921875 c0,17.5546875 13.82421875,28.453123092651367 36.0859375,28.453123092651367 c26.171875,0 53.85546875,-14.625 53.85546875,-28.453123092651367 c0,-13.828125953674316 -27.68359375,-28.44921875 -53.85546875,-28.44921875 zm0,0 " id="svg_2" class="" fill="#919191" fill-opacity="1"/><path d="m127.15398848056793,284.8505473136902 c-26.171875,0 -53.85546875,14.625 -53.85546875,28.44921875 c0,13.828124046325684 27.68359375,28.453123092651367 53.85546875,28.453123092651367 c22.2578125,0 36.0859375,-10.898436546325684 36.0859375,-28.453123092651367 c0,-17.55078125 -13.828125,-28.44921875 -36.0859375,-28.44921875 zm0,0 " id="svg_3" class="" fill="#919191" fill-opacity="1"/><path d="m132.75164473056793,261.8739695549011 c-21.95703125,0 -46.03125,6.125 -64.3984375,16.38671875 c-18.0703125,10.101563453674316 -28.43359375,22.8671875 -28.43359375,35.03515625 c0,12.171875 10.36328125,24.94140625 28.43359375,35.03515625 c18.3671875,10.265624046325684 42.44140625,16.390623092651367 64.3984375,16.390623092651367 c39.39453125,0 63.8671875,-19.69921875 63.8671875,-51.42578125 c0,-31.72265625 -24.47265625,-51.421875 -63.8671875,-51.421875 zm32.75390625,83.15625 c-9.289061546325684,8.320313453674316 -22.55078125,12.71875 -38.3515625,12.71875 c-16,-0.046875 -31.734375,-4.066405773162842 -45.80078125,-11.69140625 c-15.511717796325684,-8.66796875 -24.0546875,-20.30078125 -24.0546875,-32.76171875 c0,-12.45703125 8.54296875,-24.09375 24.0546875,-32.7578125 c14.066407203674316,-7.625 29.80078125,-11.64453125 45.80078125,-11.691407203674316 c15.80078125,0 29.0625,4.398437976837158 38.3515625,12.71484375 c8.85546875,7.933594226837158 13.734375,19.203125 13.734375,31.734375 c0,12.535157203674316 -4.878905773162842,23.80859375 -13.734375,31.73828125 zm0,0 " id="svg_4" class="" opacity="1" fill="#919191" fill-opacity="1"/><path d="m417.40398848056793,313.2997660636902 c0,-12.16796875 -10.367188453674316,-24.9375 -28.4375,-35.03515625 c-18.3671875,-10.26171875 -42.44140625,-16.38671875 -64.3984375,-16.38671875 c-39.39453125,0 -63.8671875,19.69921875 -63.8671875,51.421875 c0,31.72265625 24.47265625,51.42578125 63.8671875,51.42578125 c21.95703125,0 46.03125,-6.125 64.3984375,-16.38671875 c18.0703125,-10.09765625 28.4375,-22.86328125 28.4375,-35.0390625 zm-41.43359375,32.76171875 c-14.06640625,7.625 -29.8046875,11.644532203674316 -45.80078125,11.69140625 c-15.80078125,0 -29.0625,-4.398437023162842 -38.3515625,-12.71875 c-8.855467796325684,-7.929687023162842 -13.734375,-19.19921875 -13.734375,-31.734373092651367 c0,-12.535157203674316 4.878907203674316,-23.796876907348633 13.734375,-31.734376907348633 c9.289063453674316,-8.320311546325684 22.55078125,-12.714842796325684 38.3515625,-12.714842796325684 c15.996092796325684,0.046875 31.734375,4.066405773162842 45.80078125,11.69140625 c15.51171875,8.664063453674316 24.0546875,20.30078125 24.0546875,32.7578125 c0,12.460936546325684 -8.54296875,24.09375 -24.0546875,32.76171875 zm0,0 " id="svg_5" class="" fill="#919191" fill-opacity="1"/><path d="m440.38055098056793,170.75287580490112 c-20.91796875,-38.6328125 -58.875,-65.09765625 -102.35546875,-71.36328125 c-22.62109375,-3.21875 -45.6875,-0.6992189884185791 -67.08203125,7.320312976837158 c-27.29296875,10.074217796325684 -57.2890625,10.074217796325684 -84.5859375,0 c-21.39453125,-8.023438453674316 -44.46484375,-10.539063453674316 -67.08984375,-7.320312976837158 c-43.484375,6.238280773162842 -81.4453125,32.7109375 -102.328125,71.36328125 c-10.828125,20.11328125 -16.42578125,42.625 -16.27734375,65.46875 v54.6171875 c0,17.1171875 13.722655296325684,31.53515625 30.83984375,31.53515625 h0.4296880066394806 c4.417967796325684,0 8,-3.582031011581421 8,-8 c0,-4.417967796325684 -3.5820319652557373,-8 -8,-8 h-0.4296880066394806 c-8.296875,0 -14.83984375,-7.238280773162842 -14.83984375,-15.53515625 v-54.6171875 c0,-40.5 18.95703125,-77.00390625 52.1875,-100.15625 c32.64453125,-23.078123092651367 74.61328125,-28.453123092651367 112.01953125,-14.34375 c30.87109375,11.394532203674316 64.79296875,11.394532203674316 95.66015625,0 c37.3828125,-14.109374046325684 79.3359375,-8.730467796325684 111.95703125,14.34375 c33.23046875,23.15234375 52.17578125,59.65625 52.17578125,100.15625 v54.6171875 c0.015625,3.980468988418579 -1.546875,7.800780773162842 -4.351562023162842,10.625 c-2.804687976837158,2.820312023162842 -6.617187976837158,4.410155773162842 -10.59375,4.417969226837158 c-4.417969226837158,-0.007813000120222569 -8.00390625,3.570312023162842 -8.01171875,7.988280773162842 s3.570312976837158,8.00390625 7.988280773162842,8.01171875 c17.12109375,-0.023437999188899994 30.984375,-13.921875 30.96875,-31.04296875 v-54.6171875 c0.1445319950580597,-22.84375 -5.453125,-45.35546875 -16.28125,-65.46875 zm0,0 " id="svg_6" class="" fill="#919191" fill-opacity="1"/></g></svg>