<svg width="45px" height="50px" viewBox="0 0 45 54" version="1.1" xmlns="http://www.w3.org/2000/svg" xmlns:xlink="http://www.w3.org/1999/xlink">
    <g id="Home-Screen" stroke="none" stroke-width="1" fill="none" fill-rule="evenodd">
        <g id="Home-Icon" transform="translate(-22.000000, 0.000000)">
            <g id="Group">
                <path d="M28,38.1335165 C28,38.1335165 27.9606635,39.1291209 28.933191,39.1291209 C30.1430811,39.1291209 40.160114,39.1159341 40.160114,39.1159341 L40.1765976,29.9164835 C40.1765976,29.9164835 40.0183558,28.4 41.4903338,28.4 L46.1485756,28.4 C47.8892349,28.4 47.7820921,29.9164835 47.7820921,29.9164835 L47.7623118,39.0862637 C47.7623118,39.0862637 57.260114,39.0862637 58.7518723,39.0862637 C59.9864877,39.0862637 59.9304437,37.8467033 59.9304437,37.8467033 L59.9304437,20.8868132 L44.4425316,7.10989011 L28,20.8868132 C28,20.8868132 28,38.1335165 28,38.1335165 Z" id="Path" fill="#BB86FC" fill-rule="nonzero"></path>
                <path d="M22,19.9368132 C22,19.9368132 23.3961538,22.5098901 26.4406593,19.9368132 L44.6351648,4.54450549 L61.693956,19.8412088 C65.2181319,22.382967 66.5384615,19.8412088 66.5384615,19.8412088 L44.6351648,0 L22,19.9368132 Z" id="Path" fill="#BB86FC" fill-rule="nonzero"></path>
                <polygon id="Path" fill="#BB86FC" fill-rule="nonzero" points="61.2802198 4.50824176 56.8923077 4.50824176 56.9104396 9.82912088 61.2802198 13.5362637"></polygon>
            </g>
                <text id="Home" font-family="SFProText-Regular, SF Pro Text" font-size="10" font-weight="normal" letter-spacing="1.166667" fill="#FFFFFF">
                    <tspan x="26.2945957" y="53">Home</tspan>
                </text>
        </g>
    </g>
</svg>