
<svg width="26px" height="26px" viewBox="0 0 26 26" version="1.1" xmlns="http://www.w3.org/2000/svg" xmlns:xlink="http://www.w3.org/1999/xlink">
    <g id="Settings-Screen" stroke="none" stroke-width="1" fill="none" fill-rule="evenodd">
        <g id="notification" fill="#BB86FC" fill-rule="nonzero">
            <path d="M25.7636364,4.72727273 C25.7636364,2.12065455 23.6429818,0 21.0363636,0 C18.9237455,0 17.1311636,1.3936 16.5270182,3.30909091 L2.71109091,3.30909091 C1.3468,3.30909091 0.236363636,4.41952727 0.236363636,5.78381818 L0.236363636,23.5248 C0.236363636,24.8895636 1.3468,26 2.71109091,26 L20.4520727,26 C21.8168364,26 22.9268,24.8895636 22.9268,23.5252727 L22.9268,9.05698182 C24.5945818,8.32567273 25.7636364,6.6612 25.7636364,4.72727273 Z M21.9818182,23.5252727 C21.9818182,24.3686182 21.2958909,25.0545455 20.4525455,25.0545455 L2.71109091,25.0545455 C1.86774545,25.0545455 1.18181818,24.3686182 1.18181818,23.5252727 L1.18181818,5.78381818 C1.18181818,4.94047273 1.86774545,4.25454545 2.71109091,4.25454545 L16.3327273,4.25454545 C16.3176,4.41007273 16.3090909,4.56749091 16.3090909,4.72727273 C16.3090909,7.33389091 18.4297455,9.45454545 21.0363636,9.45454545 C21.3601818,9.45454545 21.6764364,9.42145455 21.9818182,9.35905455 L21.9818182,23.5252727 Z M18.384028,2.42721491 L18.720243,2.13115625 L21.0363636,8.50909091 C19.7646648,5.05243302 19.8796951,4.97963302 21.3814545,8.29069091 C22.883214,11.6017488 23.1863898,11.6017488 22.2909818,8.29069091 C22.1973818,8.32378182 22.1028364,8.35214545 22.0078182,8.37814545 C21.9908,8.38287273 21.9733091,8.38712727 21.9562909,8.39138182 C21.8726182,8.41265455 21.7884727,8.43109091 21.7038545,8.44669091 C21.6603636,8.45472727 17.7974226,7.44999506 17.753459,7.45661324 C17.6901135,7.46606779 21.4448,8.48592727 21.3814545,8.49207273 C21.2675273,8.502 21.1526545,8.50909091 21.0363636,8.50909091 C19.0916714,8.50909091 17.4622471,5.31651392 17.2545455,3.4261998 C17.2395386,3.28962097 17.2545455,4.86778048 17.2545455,4.72727273 C17.2545455,4.45309091 18.3192643,8.57432727 18.384028,8.29069091 C18.7674098,6.60872727 18.9557548,8.86549637 20.7521184,8.86549637 C22.8373184,8.86549637 18.384028,0.0459562492 18.384028,2.13115625 L16.6525678,5.79447968" id="Shape"></path>
        </g>
    </g>
</svg>