<svg xmlns="http://www.w3.org/2000/svg" height="512" width="512" style=""><rect id="backgroundrect" width="100%" height="100%" x="0" y="0" fill="none" stroke="none"/><g class="currentLayer" style=""><title>Layer 1</title><path d="m187.33203606639478,382.03775761982274 c-4.179687,0 -8.382812,-1.2459096126258389 -11.519531,-3.711030964602709 c-6.121094,-4.844215042094707 -5.9296880000000005,-12.521391417036773 0.425781,-17.187620131025074 l126.699219,-92.73423885847163 l-126.699219,-92.73127259686589 c-6.355469,-4.651395887136459 -6.546875,-12.346370591124536 -0.425781,-17.190585633219243 c6.144531,-4.811584645608425 16.277344,-4.971773404080391 22.636719,-0.3233437785496722 l138.664062,101.48230477953886 c3.117188,2.3167983993394374 4.886719,5.458270683884621 4.886719,8.762897229095936 c0,3.3046273046228882 -1.7695310000000002,6.4490658507738114 -4.886719,8.748065161655665 l-138.664062,101.48230477953886 c-3.117188,2.2841680028531552 -7.105469,3.4025200129048825 -11.117188,3.4025200129048825 zm0,0 " id="svg_3" class="selected" fill="#dadada" fill-opacity="1" stroke="#dadada" stroke-opacity="1" stroke-width="20" transform="rotate(179.42691040039062 256.6719055175781,268.4046630859375) "/></g></svg>