<svg width="49px" height="54px" viewBox="0 0 47 50" version="1.1" xmlns="http://www.w3.org/2000/svg" xmlns:xlink="http://www.w3.org/1999/xlink">
    <g id="Home-Screen" stroke="none" stroke-width="1" fill="none" fill-rule="evenodd">
        <g id="SettingsIcon" transform="translate(-20.000000, 0.000000)">
            <g>
                <path d="M31.1076389,0 C30.7722222,0 30.5,0.271614583 30.5,0.607638889 L30.5,22.4826389 C30.5,22.8186632 30.7722222,23.0902778 31.1076389,23.0902778 C31.4430556,23.0902778 31.7152778,22.8186632 31.7152778,22.4826389 L31.7152778,0.607638889 C31.7152778,0.271614583 31.4430556,0 31.1076389,0 Z" id="Path" fill="#BB86FC" fill-rule="nonzero"></path>
                <path d="M31.1076389,29.1666667 C30.7722222,29.1666667 30.5,29.4382812 30.5,29.7743056 L30.5,32.2048611 C30.5,32.5408854 30.7722222,32.8125 31.1076389,32.8125 C31.4430556,32.8125 31.7152778,32.5408854 31.7152778,32.2048611 L31.7152778,29.7743056 C31.7152778,29.4382812 31.4430556,29.1666667 31.1076389,29.1666667 Z" id="Path" fill="#BB86FC" fill-rule="nonzero"></path>
                <path d="M42.6527778,0 C42.3173611,0 42.0451389,0.271614583 42.0451389,0.607638889 L42.0451389,12.7604167 C42.0451389,13.096441 42.3173611,13.3680556 42.6527778,13.3680556 C42.9881944,13.3680556 43.2604167,13.096441 43.2604167,12.7604167 L43.2604167,0.607638889 C43.2604167,0.271614583 42.9881944,0 42.6527778,0 Z" id="Path" fill="#BB86FC" fill-rule="nonzero"></path>
                <path d="M42.6527778,19.4444444 C42.3173611,19.4444444 42.0451389,19.716059 42.0451389,20.0520833 L42.0451389,32.2048611 C42.0451389,32.5408854 42.3173611,32.8125 42.6527778,32.8125 C42.9881944,32.8125 43.2604167,32.5408854 43.2604167,32.2048611 L43.2604167,20.0520833 C43.2604167,19.716059 42.9881944,19.4444444 42.6527778,19.4444444 Z" id="Path" fill="#BB86FC" fill-rule="nonzero"></path>
                <path d="M54.1979167,9.72222222 C53.8625,9.72222222 53.5902778,9.99383681 53.5902778,10.3298611 L53.5902778,32.2048611 C53.5902778,32.5408854 53.8625,32.8125 54.1979167,32.8125 C54.5333333,32.8125 54.8055556,32.5408854 54.8055556,32.2048611 L54.8055556,10.3298611 C54.8055556,9.99383681 54.5333333,9.72222222 54.1979167,9.72222222 Z" id="Path" fill="#BB86FC" fill-rule="nonzero"></path>
                <path d="M54.1979167,0 C53.8625,0 53.5902778,0.271614583 53.5902778,0.607638889 L53.5902778,3.03819444 C53.5902778,3.37421875 53.8625,3.64583333 54.1979167,3.64583333 C54.5333333,3.64583333 54.8055556,3.37421875 54.8055556,3.03819444 L54.8055556,0.607638889 C54.8055556,0.271614583 54.5333333,0 54.1979167,0 Z" id="Path" fill="#BB86FC" fill-rule="nonzero"></path>
                <rect id="Rectangle" fill="#BB86FC" fill-rule="nonzero" x="28.0694444" y="22.4826389" width="6.07638889" height="7.29166667"></rect>
                <rect id="Rectangle" fill="#BB86FC" fill-rule="nonzero" x="39.6145833" y="12.7604167" width="6.07638889" height="7.29166667"></rect>
                <rect id="Rectangle" fill="#BB86FC" fill-rule="nonzero" x="51.1597222" y="3.03819444" width="6.07638889" height="7.29166667"></rect>
                <text id="Settings" font-family="SFProText-Regular, SF Pro Text" font-size="10" font-weight="normal" letter-spacing="1.166667" fill="#FFFFFF">
                    <tspan x="18.3460273" y="48">Settings</tspan>
                </text>
            </g>
        </g>
    </g>
</svg>