<svg height="511" width="511.99912" xmlns="http://www.w3.org/2000/svg"><rect id="backgroundrect" width="100%" height="100%" x="0" y="0" fill="none" stroke="none"/><g class="currentLayer" style=""><title>Layer 1</title><path d="m497.46258223056793,327.6704330444336 l-59.1171875,-154.4453125 v-0.0039059999398887157 c-4.199219226837158,-10.96484375 -17.22265625,-15.32421875 -27.13671875,-9.43359375 c-19.0703125,11.320313453674316 -40.875,17.30859375 -63.0546875,17.30859375 h-164.93359375 l1.1640620231628418,-4.242187023162842 c2.125,-6.003907203674316 3.117187976837158,-12.164063453674316 3.0195319652557373,-18.2578125 c-0.1679690033197403,-10.15234375 -3.382812976837158,-20.10546875 -9.5,-28.8046875 c-24.42578125,-34.74609375 -78.09765625,-27.0546875 -91.58984375,13.355467796325684 l-31.80859375,69.7265625 v0.0039059999398887157 l-46.78515625,102.55859375 c-0.019531000405550003,0.04296899959445 -0.03515600040555,0.08984299749135971 -0.05078100040555,0.1328119933605194 c-22.12109375,44.92578125 10.81640625,97.68359375 60.89453125,97.68359375 h191.72265625 c4.144532203674316,0 7.5,-3.355468988418579 7.5,-7.496094226837158 c0,-4.144530773162842 -3.3554680347442627,-7.5 -7.5,-7.5 h-149.08203125 c12.023436546325684,-9.695311546325684 20.703125,-23.45703125 23.90234375,-39.70703125 h271.57421875 c27.453123092651367,0 54.828125,-6.160155773162842 79.71484375,-17.83203125 l11.003907203674316,28.7421875 c0.6640620231628418,1.730468988418579 -0.011718999594449997,3.671875 -1.6015629768371582,4.613282203674316 c-26.6484375,15.820311546325684 -57.11328125,24.18359375 -88.10546875,24.18359375 h-112.4140625 c-4.140625,0 -7.496094226837158,3.355468988418579 -7.496094226837158,7.5 c0,4.140625 3.355468988418579,7.496094226837158 7.496094226837158,7.496094226837158 h112.4140625 c33.68359375,0 66.796875,-9.085936546325684 95.7578125,-26.28125 c7.890625,-4.683594226837158 11.234375,-14.30078125 7.957030773162842,-22.87109375 zm-336.3515625,-122.70703125 l-4.808594226837158,17.5078125 c-15.152342796325684,-26.625 -48.609375,-38.46484375 -77.18359375,-27.41796875 l8.308592796325684,-18.21875 c25.69140625,-27.96484375 73.1328125,-10.226561546325684 73.68359375,28.12890625 zm-116.09765625,64.8515625 c28.6640625,-36.75390625 88.18359375,-18.0546875 90.4375,28.57421875 l-5.183594226837158,18.86328125 c-16.078125,-35.21484375 -58.11328125,-49.4765625 -92.03125,-32.578125 zm104.17578125,-21.44140625 l-6.066405773162842,22.078125 c-15.898438453674316,-30.48828125 -53.81640625,-43.35546875 -84.94140625,-29.50390625 l9.433592796325684,-20.67578125 c27.984375,-28.58984375 77.16796875,-11.86328125 81.57421875,28.1015625 zm-90.7734375,45.19921875 c18.73828125,-3.664062976837158 38.8125,3.09375 51.55078125,19.09765625 l-2.664062976837158,8.042967796325684 c-11.25,-17.58203125 -32.765625,-25.375 -52.57421875,-19.13671875 zm-17.25,37.4609375 c5.386719226837158,-10.23046875 15.87109375,-16.58203125 27.39453125,-16.58203125 c17.07421875,0 30.96875,13.89453125 30.96875,30.96875 c0,8.46875 11.953125,10.39453125 14.617186546325684,2.3554680347442627 l5.382812976837158,-16.26171875 c1.234375,4.5 1.8203120231628418,8.90625 1.859375,13.453125 c0.02734299935400486,17.44140625 -14.535157203674316,31.41796875 -32.03515625,31.41796875 h-20.79296875 c-21.01171875,0 -38.46875,-21.30078125 -27.39453125,-45.3515625 zm124.12109375,-84.6484375 h221.68359375 c20.0625,0 40.28125,-3.929687976837158 58.953125,-11.410157203674316 l14.86328125,38.83984375 c-20.15234375,9 -42.23046875,13.73046875 -64.26953125,13.73046875 h-242.53515625 zm182.86328125,-50.29296875 c24.875,0 49.328125,-6.714844226837158 70.71484375,-19.41015625 c2.0351569652557373,-1.207031011581421 4.636719226837158,-0.28125 5.472657203674316,1.902343988418579 l16.2265625,42.390625 c-16.96484375,6.828125 -35.3515625,10.414063453674316 -53.59375,10.414063453674316 h-217.5625 c5.855469226837158,-21.32421875 6.132812023162842,-22.328125 9.695311546325684,-35.296875 zm-212.66015625,-73.36328125 c25.48046875,0 43.33984375,25.265623092651367 34.68359375,49.328125 c-0.15625,0.4257819950580597 -1.285156011581421,4.589844226837158 -1.40625,5.027344226837158 c-13.19140625,-23.2890625 -43.05078125,-35.22265625 -69.828125,-25.484375 c0.2734380066394806,-0.5976560115814209 1.300781011581421,-2.78125 1.5,-3.4023430347442627 c4.941405773162842,-15.234375953674316 19.02734375,-25.46875 35.05078125,-25.46875 zm-119.765625,222.69140625 c0,-17.66015625 8.71875,-33.30859375 22.0625,-42.91015625 l-11.921875,25.8984375 c-0.0664059966802597,0.140625 -0.125,0.28125 -0.1835930049419403,0.4296869933605194 c-11.625,30.05078125 10.648436546325684,62.546875 42.87890625,62.546875 h20.7890625 c1.980468988418579,0 3.945312976837158,-0.1406259983778 5.898437976837158,-0.3906260132789612 c-8.429688453674316,4.953125953674316 -17.625,7.261719226837158 -26.6875,7.261719226837158 c-29.1328125,0 -52.8359375,-23.703125 -52.8359375,-52.8359375 zm390.95703125,-1.8671879768371582 h-268.08203125 l11.265625,-41.01171875 h246.65234375 c23.8671875,0 47.765625,-5.078125953674316 69.6328125,-14.71875 l14.87890625,38.8671875 c-23.1640625,11.046875 -48.7265625,16.86328125 -74.34765625,16.86328125 zm0,0 " fill="#919191" id="svg_1" class="" fill-opacity="1"/></g></svg>